<?xml version="1.0" encoding="UTF-8" standalone="no"?>
<!-- Created with Inkscape (http://www.inkscape.org/) -->

<svg
   width="226.39999mm"
   height="139.89999mm"
   viewBox="0 0 226.39999 139.89999"
   version="1.1"
   id="svg5"
   inkscape:version="1.2.2 (b0a8486541, 2022-12-01)"
   sodipodi:docname="csg10.svg"
   xmlns:inkscape="http://www.inkscape.org/namespaces/inkscape"
   xmlns:sodipodi="http://sodipodi.sourceforge.net/DTD/sodipodi-0.dtd"
   xmlns="http://www.w3.org/2000/svg"
   xmlns:svg="http://www.w3.org/2000/svg">
  <sodipodi:namedview
     id="namedview7"
     pagecolor="#ffffff"
     bordercolor="#666666"
     borderopacity="1.0"
     inkscape:showpageshadow="2"
     inkscape:pageopacity="0.0"
     inkscape:pagecheckerboard="0"
     inkscape:deskcolor="#d1d1d1"
     inkscape:document-units="mm"
     showgrid="false"
     inkscape:zoom="1.1612897"
     inkscape:cx="447.34746"
     inkscape:cy="293.20849"
     inkscape:window-width="1914"
     inkscape:window-height="1032"
     inkscape:window-x="0"
     inkscape:window-y="42"
     inkscape:window-maximized="1"
     inkscape:current-layer="layer1" />
  <defs
     id="defs2">
    <clipPath
       id="clipPath9122">
      <path
         clip-rule="nonzero"
         d="M 1,1 H 7 V 21.890625 H 1 Z m 0,0"
         id="path6450" />
    </clipPath>
    <clipPath
       id="clipPath8826">
      <path
         clip-rule="nonzero"
         d="m 64,1 h 5 v 20.890625 h -5 z m 0,0"
         id="path8075" />
    </clipPath>
    <clipPath
       id="clipPath637">
      <path
         clip-rule="nonzero"
         d="m 103,1 h 6 v 20.890625 h -6 z m 0,0"
         id="path6657" />
    </clipPath>
    <clipPath
       id="clipPath9260">
      <path
         clip-rule="nonzero"
         d="m 163,1 h 5 v 20.890625 h -5 z m 0,0"
         id="path1782" />
    </clipPath>
    <clipPath
       id="clipPath1800">
      <path
         clip-rule="nonzero"
         d="m 226,88 h 6 v 9.742188 h -6 z m 0,0"
         id="path7458" />
    </clipPath>
    <clipPath
       id="clipPath7647">
      <path
         clip-rule="nonzero"
         d="m 179,50 h 10 v 13.792969 h -10 z m 0,0"
         id="path3516" />
    </clipPath>
    <clipPath
       id="clipPath6251">
      <path
         clip-rule="nonzero"
         d="m 215,50 h 10 v 13.792969 h -10 z m 0,0"
         id="path3585" />
    </clipPath>
    <clipPath
       id="clipPath2233">
      <path
         clip-rule="nonzero"
         d="M 1,1 H 7 V 21.890625 H 1 Z m 0,0"
         id="path9021" />
    </clipPath>
    <clipPath
       id="clipPath2031">
      <path
         clip-rule="nonzero"
         d="m 64,1 h 5 v 20.890625 h -5 z m 0,0"
         id="path3882" />
    </clipPath>
    <clipPath
       id="clipPath9167">
      <path
         clip-rule="nonzero"
         d="m 103,1 h 6 v 20.890625 h -6 z m 0,0"
         id="path7215" />
    </clipPath>
    <clipPath
       id="clipPath6472">
      <path
         clip-rule="nonzero"
         d="m 163,1 h 5 v 20.890625 h -5 z m 0,0"
         id="path2788" />
    </clipPath>
    <clipPath
       id="clipPath3030">
      <path
         clip-rule="nonzero"
         d="m 48,6 h 7 v 10.417969 h -7 z m 0,0"
         id="path4159" />
    </clipPath>
  </defs>
  <g
     inkscape:groupmode="layer"
     id="layer2"
     inkscape:label="Layer 2" />
  <g
     inkscape:groupmode="layer"
     id="layer3"
     inkscape:label="Layer 3" />
  <g
     inkscape:label="Layer 1"
     inkscape:groupmode="layer"
     id="layer1">
    <rect
       style="fill:none;fill-opacity:0.350897;fill-rule:evenodd;stroke:#000000;stroke-width:1.84535;stroke-dasharray:none;stroke-opacity:1"
       id="rect896"
       width="216.69998"
       height="131.42073"
       x="4.3457279"
       y="4.6268582" />
    <text
       xml:space="preserve"
       style="font-style:normal;font-weight:normal;font-size:10.5833px;line-height:1.25;font-family:sans-serif;fill:#000000;fill-opacity:1;stroke:none;stroke-width:0.264583"
       x="88.279785"
       y="88.057564"
       id="text9823"><tspan
         sodipodi:role="line"
         id="tspan9821"
         style="stroke-width:0.264583"
         x="88.279785"
         y="88.057564" /></text>
    <ellipse
       style="fill:none;fill-opacity:0.855745;fill-rule:evenodd;stroke:#000000;stroke-width:1.013;stroke-dasharray:1.013,1.013;stroke-opacity:1;stroke-dashoffset:0;font-variation-settings:normal;opacity:1;vector-effect:none;stroke-linecap:butt;stroke-linejoin:miter;stroke-miterlimit:4;-inkscape-stroke:none;stop-color:#000000;stop-opacity:1"
       id="path18958"
       cx="151.01385"
       cy="69.084099"
       rx="28.205387"
       ry="24.89971" />
    <text
       xml:space="preserve"
       style="font-style:normal;font-weight:normal;font-size:10.5833px;line-height:1.25;font-family:sans-serif;fill:#000000;fill-opacity:1;stroke:none;stroke-width:0.264583"
       x="7.6846805"
       y="15.737042"
       id="text21186"><tspan
         sodipodi:role="line"
         id="tspan21184"
         style="stroke-width:0.264583;font-weight:normal"
         x="7.6846805"
         y="15.737042">Step 1) define surfaces</tspan><tspan
         sodipodi:role="line"
         style="stroke-width:0.264583;font-weight:bold"
         x="7.6846805"
         y="28.966166"
         id="tspan21188">Step 2) define volumes</tspan><tspan
         sodipodi:role="line"
         style="stroke-width:0.264583"
         x="7.6846805"
         y="42.195293"
         id="tspan21190">Step 3) define materials</tspan><tspan
         sodipodi:role="line"
         style="stroke-width:0.264583"
         x="7.6846805"
         y="55.424416"
         id="tspan21192">             that fill volumes</tspan></text>
    <path
       style="fill:none;stroke:#000000;stroke-width:1.013;stroke-linecap:butt;stroke-linejoin:miter;stroke-opacity:1;fill-opacity:0.855745;font-variation-settings:normal;opacity:1;vector-effect:none;stroke-miterlimit:4;stroke-dasharray:1.013, 1.013;stroke-dashoffset:0;-inkscape-stroke:none;stop-color:#000000;stop-opacity:1"
       d="m 149.15967,15.546339 0.67045,104.964341"
       id="path21194" />
    <path
       style="font-variation-settings:normal;opacity:1;vector-effect:none;fill:none;fill-opacity:0.855745;stroke:#000000;stroke-width:1.07987;stroke-linecap:butt;stroke-linejoin:miter;stroke-miterlimit:4;stroke-dasharray:1.07987, 1.07987;stroke-dashoffset:0;stroke-opacity:1;-inkscape-stroke:none;stop-color:#000000;stop-opacity:1"
       d="m 133.47562,27.273387 77.62773,-0.914995"
       id="path30915" />
    <path
       style="font-variation-settings:normal;opacity:1;vector-effect:none;fill:none;fill-opacity:0.855745;stroke:#000000;stroke-width:1.10309;stroke-linecap:butt;stroke-linejoin:miter;stroke-miterlimit:4;stroke-dasharray:none;stroke-dashoffset:0;stroke-opacity:1;-inkscape-stroke:none;stop-color:#000000;stop-opacity:1"
       d="M 192.04431,0.45696967 192.38547,138.545"
       id="path30917" />
    <path
       style="fill:none;stroke:#000000;stroke-width:1.013;stroke-linecap:butt;stroke-linejoin:miter;stroke-opacity:1;font-variation-settings:normal;opacity:1;vector-effect:none;fill-opacity:0.855745;stroke-miterlimit:4;stroke-dasharray:1.013, 1.013;stroke-dashoffset:0;-inkscape-stroke:none;stop-color:#000000;stop-opacity:1"
       d="m 133.63966,114.1668 79.41507,-0.0645"
       id="path30919" />
    <path
       style="font-variation-settings:normal;opacity:1;vector-effect:none;fill:none;fill-opacity:0.855745;stroke:#000000;stroke-width:1.2132;stroke-linecap:butt;stroke-linejoin:miter;stroke-miterlimit:4;stroke-dasharray:1.2132, 1.2132;stroke-dashoffset:0;stroke-opacity:1;-inkscape-stroke:none;stop-color:#000000;stop-opacity:1"
       d="M 128.81642,19.159681 129.4949,112.9413"
       id="path30921" />
    <text
       xml:space="preserve"
       style="font-style:normal;font-weight:normal;font-size:10.5833px;line-height:1.25;font-family:sans-serif;fill:#000000;fill-opacity:1;stroke:none;stroke-width:0.264583"
       x="10.5922"
       y="93.173523"
       id="text51648"><tspan
         sodipodi:role="line"
         id="tspan51646"
         style="stroke-width:0.264583"
         x="10.5922"
         y="93.173523">openmc.Region</tspan></text>
    <g
       inkscape:label=""
       transform="translate(33.139189,99.629921)"
       id="g60321">
      <g
         fill="#000000"
         fill-opacity="1"
         id="g30"
         transform="matrix(0.352778,0,0,0.352778,-0.20395,0.118622)">
        <g
           id="use28"
           transform="translate(0,13.32)">
          <path
             d="m 9.796875,-8.421875 c -0.671875,0.125 -0.921875,0.609375 -0.921875,1 0,0.5 0.40625,0.671875 0.6875,0.671875 0.625,0 1.0625,-0.546875 1.0625,-1.09375 0,-0.875 -1,-1.265625 -1.859375,-1.265625 -1.265625,0 -1.96875,1.234375 -2.15625,1.625 -0.46875,-1.546875 -1.75,-1.625 -2.125,-1.625 -2.109375,0 -3.21875,2.703125 -3.21875,3.15625 0,0.09375 0.078125,0.1875 0.21875,0.1875 0.171875,0 0.203125,-0.125 0.25,-0.203125 0.703125,-2.296875 2.09375,-2.734375 2.6875,-2.734375 0.921875,0 1.109375,0.875 1.109375,1.375 0,0.453125 -0.125,0.921875 -0.359375,1.921875 L 4.46875,-2.578125 c -0.3125,1.234375 -0.921875,2.375 -2.015625,2.375 -0.09375,0 -0.609375,0 -1.046875,-0.265625 C 2.140625,-0.625 2.3125,-1.234375 2.3125,-1.484375 2.3125,-1.90625 2,-2.140625 1.609375,-2.140625 c -0.5,0 -1.03125,0.421875 -1.03125,1.09375 0,0.859375 0.96875,1.25 1.859375,1.25 0.984375,0 1.6875,-0.78125 2.125,-1.625 0.328125,1.21875 1.359375,1.625 2.125,1.625 2.109375,0 3.234375,-2.703125 3.234375,-3.15625 0,-0.109375 -0.09375,-0.1875 -0.21875,-0.1875 -0.1875,0 -0.203125,0.109375 -0.265625,0.265625 -0.5625,1.828125 -1.75,2.671875 -2.6875,2.671875 -0.71875,0 -1.109375,-0.546875 -1.109375,-1.390625 0,-0.453125 0.078125,-0.78125 0.40625,-2.140625 l 0.734375,-2.8125 c 0.296875,-1.234375 1,-2.15625 1.953125,-2.15625 0.046875,0 0.625,0 1.0625,0.28125 z m 0,0"
             id="path58" />
        </g>
      </g>
      <g
         fill="#000000"
         fill-opacity="1"
         id="g34"
         transform="matrix(0.352778,0,0,0.352778,-0.20395,0.118622)">
        <g
           id="use32"
           transform="translate(16.089001,13.32)">
          <path
             d="m 13.609375,-4.75 c 0.359375,0 0.71875,0 0.71875,-0.421875 0,-0.40625 -0.359375,-0.40625 -0.71875,-0.40625 H 2.4375 c -0.34375,0 -0.71875,0 -0.71875,0.40625 0,0.421875 0.375,0.421875 0.71875,0.421875 z m 0,0"
             id="path62" />
        </g>
      </g>
      <g
         fill="#000000"
         fill-opacity="1"
         id="g38"
         transform="matrix(0.352778,0,0,0.352778,-0.20395,0.118622)">
        <g
           id="use36"
           transform="translate(36.750999,13.32)">
          <path
             d="m 9.796875,-8.421875 c -0.671875,0.125 -0.921875,0.609375 -0.921875,1 0,0.5 0.40625,0.671875 0.6875,0.671875 0.625,0 1.0625,-0.546875 1.0625,-1.09375 0,-0.875 -1,-1.265625 -1.859375,-1.265625 -1.265625,0 -1.96875,1.234375 -2.15625,1.625 -0.46875,-1.546875 -1.75,-1.625 -2.125,-1.625 -2.109375,0 -3.21875,2.703125 -3.21875,3.15625 0,0.09375 0.078125,0.1875 0.21875,0.1875 0.171875,0 0.203125,-0.125 0.25,-0.203125 0.703125,-2.296875 2.09375,-2.734375 2.6875,-2.734375 0.921875,0 1.109375,0.875 1.109375,1.375 0,0.453125 -0.125,0.921875 -0.359375,1.921875 L 4.46875,-2.578125 c -0.3125,1.234375 -0.921875,2.375 -2.015625,2.375 -0.09375,0 -0.609375,0 -1.046875,-0.265625 C 2.140625,-0.625 2.3125,-1.234375 2.3125,-1.484375 2.3125,-1.90625 2,-2.140625 1.609375,-2.140625 c -0.5,0 -1.03125,0.421875 -1.03125,1.09375 0,0.859375 0.96875,1.25 1.859375,1.25 0.984375,0 1.6875,-0.78125 2.125,-1.625 0.328125,1.21875 1.359375,1.625 2.125,1.625 2.109375,0 3.234375,-2.703125 3.234375,-3.15625 0,-0.109375 -0.09375,-0.1875 -0.21875,-0.1875 -0.1875,0 -0.203125,0.109375 -0.265625,0.265625 -0.5625,1.828125 -1.75,2.671875 -2.6875,2.671875 -0.71875,0 -1.109375,-0.546875 -1.109375,-1.390625 0,-0.453125 0.078125,-0.78125 0.40625,-2.140625 l 0.734375,-2.8125 c 0.296875,-1.234375 1,-2.15625 1.953125,-2.15625 0.046875,0 0.625,0 1.0625,0.28125 z m 0,0"
             id="path66" />
        </g>
      </g>
      <g
         clip-path="url(#clipPath3030)"
         id="g44"
         transform="matrix(0.352778,0,0,0.352778,-0.20395,0.118622)">
        <g
           fill="#000000"
           fill-opacity="1"
           id="g42">
          <g
             id="use40"
             transform="translate(48.248001,16.419001)">
            <path
               d="m 6.421875,-4.59375 c 0,-1.1875 -0.0625,-2.34375 -0.578125,-3.4375 -0.59375,-1.1875 -1.625,-1.5 -2.328125,-1.5 -0.828125,0 -1.859375,0.40625 -2.375,1.59375 -0.40625,0.90625 -0.546875,1.796875 -0.546875,3.34375 0,1.390625 0.09375,2.4375 0.609375,3.453125 0.5625,1.09375 1.546875,1.4375 2.296875,1.4375 1.25,0 1.96875,-0.734375 2.375,-1.578125 0.515625,-1.078125 0.546875,-2.484375 0.546875,-3.3125 z M 3.5,0.015625 C 3.046875,0.015625 2.109375,-0.25 1.84375,-1.8125 1.671875,-2.671875 1.671875,-3.765625 1.671875,-4.765625 1.671875,-5.9375 1.671875,-7 1.90625,-7.84375 2.15625,-8.8125 2.890625,-9.25 3.5,-9.25 c 0.546875,0 1.375,0.328125 1.65625,1.5625 0.171875,0.8125 0.171875,1.953125 0.171875,2.921875 0,0.96875 0,2.046875 -0.15625,2.921875 C 4.90625,-0.265625 4,0.015625 3.5,0.015625 Z m 0,0"
               id="path70" />
          </g>
        </g>
      </g>
      <g
         fill="#000000"
         fill-opacity="1"
         id="g48"
         transform="matrix(0.352778,0,0,0.352778,-0.20395,0.118622)">
        <g
           id="use46"
           transform="translate(61.509998,13.32)">
          <path
             d="m 13.609375,-4.703125 c 0.390625,-0.1875 0.421875,-0.3125 0.421875,-0.46875 0,-0.109375 -0.04687,-0.265625 -0.421875,-0.421875 L 2.4375,-10.734375 c -0.265625,-0.125 -0.3125,-0.15625 -0.34375,-0.15625 -0.25,0 -0.40625,0.21875 -0.40625,0.375 0,0.25 0.171875,0.328125 0.4375,0.453125 L 12.75,-5.171875 2.109375,-0.25 C 1.6875,-0.0625 1.6875,0.078125 1.6875,0.203125 c 0,0.171875 0.15625,0.375 0.40625,0.375 0.03125,0 0.046875,-0.015625 0.34375,-0.140625 z m 0,0"
             id="path74" />
        </g>
      </g>
      <g
         fill="#000000"
         fill-opacity="1"
         id="g52"
         transform="matrix(0.352778,0,0,0.352778,-0.20395,0.118622)">
        <g
           id="use50"
           transform="translate(82.985001,13.32)">
          <path
             d="m 8.671875,-6.625 c 0,-1.265625 -0.015625,-3.40625 -0.890625,-5.0625 -0.765625,-1.453125 -1.984375,-1.96875 -3.046875,-1.96875 -1,0 -2.25,0.453125 -3.046875,1.9375 -0.8125,1.5625 -0.90625,3.484375 -0.90625,5.09375 0,1.171875 0.03125,2.96875 0.671875,4.53125 0.875,2.140625 2.46875,2.421875 3.28125,2.421875 C 5.6875,0.328125 7.125,-0.0625 7.96875,-2.03125 8.59375,-3.453125 8.671875,-5.125 8.671875,-6.625 Z M 4.734375,0 C 3.40625,0 2.625,-1.140625 2.328125,-2.703125 c -0.21875,-1.21875 -0.21875,-3 -0.21875,-4.15625 0,-1.59375 0,-2.90625 0.265625,-4.171875 0.390625,-1.75 1.546875,-2.296875 2.359375,-2.296875 0.84375,0 1.9375,0.5625 2.328125,2.25 0.265625,1.1875 0.296875,2.5625 0.296875,4.21875 0,1.34375 0,3 -0.25,4.21875 C 6.671875,-0.390625 5.453125,0 4.734375,0 Z m 0,0"
             id="path78" />
        </g>
      </g>
    </g>
    <path
       style="font-variation-settings:normal;opacity:1;vector-effect:none;fill:#6f6fff;fill-opacity:0.85490197;fill-rule:evenodd;stroke:#000000;stroke-width:3.2969;stroke-linecap:butt;stroke-linejoin:miter;stroke-miterlimit:4;stroke-dasharray:none;stroke-dashoffset:0;stroke-opacity:1;-inkscape-stroke:none;stop-color:#000000;stop-opacity:1"
       d="m 729.79206,472.3197 c 0,-24.97224 0.29994,-38.31947 0.86111,-38.31947 1.25494,0 1.05662,-4.95799 -0.21528,-5.38185 -0.85522,-0.285 -1.11519,-34.13885 -1.26523,-164.75935 -0.10386,-90.42035 -0.4495,-181.935028 -0.76807,-203.365942 l -0.57923,-38.965299 h 51.78893 51.78893 V 266.08348 510.63916 h -50.80558 -50.80558 z m 9.47223,-40.9028 c 0,-2.2963 -0.28704,-2.58334 -2.58334,-2.58334 -2.2963,0 -2.58333,0.28704 -2.58333,2.58334 0,2.2963 0.28703,2.58333 2.58333,2.58333 2.2963,0 2.58334,-0.28703 2.58334,-2.58333 z m 7.75,0 c 0,-2.2963 -0.28704,-2.58334 -2.58334,-2.58334 -2.29629,0 -2.58333,0.28704 -2.58333,2.58334 0,2.2963 0.28704,2.58333 2.58333,2.58333 2.2963,0 2.58334,-0.28703 2.58334,-2.58333 z m 7.59192,-0.21528 c 0.24483,-2.12774 0.004,-2.36806 -2.36805,-2.36806 -2.37256,0 -2.64054,0.26797 -2.64054,2.64053 0,2.37256 0.24032,2.61288 2.36806,2.36806 1.85998,-0.21401 2.42652,-0.78055 2.64053,-2.64053 z m 7.04698,0.21528 c 0,-2.18148 -0.33488,-2.58334 -2.15278,-2.58334 -1.8179,0 -2.15278,0.40186 -2.15278,2.58334 0,2.18148 0.33488,2.58333 2.15278,2.58333 1.8179,0 2.15278,-0.40185 2.15278,-2.58333 z m 7.75,0 c 0,-2.18148 -0.33488,-2.58334 -2.15278,-2.58334 -1.8179,0 -2.15278,0.40186 -2.15278,2.58334 0,2.18148 0.33488,2.58333 2.15278,2.58333 1.8179,0 2.15278,-0.40185 2.15278,-2.58333 z m 7.75,0 c 0,-2.18148 -0.33487,-2.58334 -2.15277,-2.58334 -1.81791,0 -2.15278,0.40186 -2.15278,2.58334 0,2.18148 0.33487,2.58333 2.15278,2.58333 1.8179,0 2.15277,-0.40185 2.15277,-2.58333 z m 7.75001,0 c 0,-2.18148 -0.33488,-2.58334 -2.15278,-2.58334 -1.8179,0 -2.15278,0.40186 -2.15278,2.58334 0,2.18148 0.33488,2.58333 2.15278,2.58333 1.8179,0 2.15278,-0.40185 2.15278,-2.58333 z m 7.75,0 c 0,-2.18148 -0.33487,-2.58334 -2.15278,-2.58334 -1.8179,0 -2.15278,0.40186 -2.15278,2.58334 0,2.18148 0.33488,2.58333 2.15278,2.58333 1.81791,0 2.15278,-0.40185 2.15278,-2.58333 z m 7.75001,0 c 0,-2.2963 -0.28704,-2.58334 -2.58334,-2.58334 -2.13227,0 -2.58333,0.35083 -2.58333,2.00926 0,2.52633 0.63108,3.15741 3.15741,3.15741 1.65843,0 2.00926,-0.45106 2.00926,-2.58333 z m 5.16667,-0.43056 c 0,-1.33951 -0.48797,-2.15278 -1.29167,-2.15278 -0.8037,0 -1.29167,0.81327 -1.29167,2.15278 0,1.33951 0.48797,2.15278 1.29167,2.15278 0.8037,0 1.29167,-0.81327 1.29167,-2.15278 z M 737.54206,100.3195 c 0,-1.817904 -0.40185,-2.152781 -2.58333,-2.152781 -2.18149,0 -2.58334,0.334877 -2.58334,2.152781 0,1.8179 0.40185,2.15278 2.58334,2.15278 2.18148,0 2.58333,-0.33488 2.58333,-2.15278 z m 7.75001,0 c 0,-1.722225 -0.43056,-2.152781 -2.15278,-2.152781 -1.72223,0 -2.15278,0.430556 -2.15278,2.152781 0,1.72222 0.43055,2.15278 2.15278,2.15278 1.72222,0 2.15278,-0.43056 2.15278,-2.15278 z m 8.61111,-0.430558 c 0,-1.656009 -0.43838,-2.583334 -1.22124,-2.583334 -2.53184,0 -3.94543,1.112843 -3.94543,3.106022 0,1.71553 0.43265,2.06065 2.58334,2.06065 2.2963,0 2.58333,-0.28704 2.58333,-2.583338 z m 7.75001,0 c 0,-2.181482 -0.33488,-2.583334 -2.15278,-2.583334 -1.8179,0 -2.15278,0.401852 -2.15278,2.583334 0,2.181478 0.33488,2.583338 2.15278,2.583338 1.8179,0 2.15278,-0.40186 2.15278,-2.583338 z m 8.61111,0 c 0,-2.296297 -0.28704,-2.583334 -2.58333,-2.583334 -2.2963,0 -2.58334,0.287037 -2.58334,2.583334 0,2.296298 0.28704,2.583338 2.58334,2.583338 2.29629,0 2.58333,-0.28704 2.58333,-2.583338 z m 7.75001,0 c 0,-2.181482 -0.33488,-2.583334 -2.15278,-2.583334 -1.81791,0 -2.15278,0.401852 -2.15278,2.583334 0,2.181478 0.33487,2.583338 2.15278,2.583338 1.8179,0 2.15278,-0.40186 2.15278,-2.583338 z m 8.61111,0 c 0,-2.296297 -0.28704,-2.583334 -2.58333,-2.583334 -2.2963,0 -2.58334,0.287037 -2.58334,2.583334 0,2.296298 0.28704,2.583338 2.58334,2.583338 2.29629,0 2.58333,-0.28704 2.58333,-2.583338 z m 7.75001,0 c 0,-2.181482 -0.33488,-2.583334 -2.15278,-2.583334 -1.81791,0 -2.15278,0.401852 -2.15278,2.583334 0,2.181478 0.33487,2.583338 2.15278,2.583338 1.8179,0 2.15278,-0.40186 2.15278,-2.583338 z"
       id="path62377"
       transform="scale(0.26458333)" />
  </g>
</svg>
