<?xml version="1.0" encoding="UTF-8" standalone="no"?>
<!-- Created with Inkscape (http://www.inkscape.org/) -->

<svg
   width="226.39999mm"
   height="139.89999mm"
   viewBox="0 0 226.39999 139.89999"
   version="1.1"
   id="svg5"
   inkscape:version="1.2.2 (b0a8486541, 2022-12-01)"
   sodipodi:docname="csg5.svg"
   xmlns:inkscape="http://www.inkscape.org/namespaces/inkscape"
   xmlns:sodipodi="http://sodipodi.sourceforge.net/DTD/sodipodi-0.dtd"
   xmlns="http://www.w3.org/2000/svg"
   xmlns:svg="http://www.w3.org/2000/svg">
  <sodipodi:namedview
     id="namedview7"
     pagecolor="#ffffff"
     bordercolor="#666666"
     borderopacity="1.0"
     inkscape:showpageshadow="2"
     inkscape:pageopacity="0.0"
     inkscape:pagecheckerboard="0"
     inkscape:deskcolor="#d1d1d1"
     inkscape:document-units="mm"
     showgrid="false"
     inkscape:zoom="1.1612897"
     inkscape:cx="399.12521"
     inkscape:cy="215.70845"
     inkscape:window-width="1914"
     inkscape:window-height="1032"
     inkscape:window-x="0"
     inkscape:window-y="42"
     inkscape:window-maximized="1"
     inkscape:current-layer="layer1" />
  <defs
     id="defs2">
    <clipPath
       id="clipPath9122">
      <path
         clip-rule="nonzero"
         d="M 1,1 H 7 V 21.890625 H 1 Z m 0,0"
         id="path6450" />
    </clipPath>
    <clipPath
       id="clipPath8826">
      <path
         clip-rule="nonzero"
         d="m 64,1 h 5 v 20.890625 h -5 z m 0,0"
         id="path8075" />
    </clipPath>
    <clipPath
       id="clipPath637">
      <path
         clip-rule="nonzero"
         d="m 103,1 h 6 v 20.890625 h -6 z m 0,0"
         id="path6657" />
    </clipPath>
    <clipPath
       id="clipPath9260">
      <path
         clip-rule="nonzero"
         d="m 163,1 h 5 v 20.890625 h -5 z m 0,0"
         id="path1782" />
    </clipPath>
    <clipPath
       id="clipPath1800">
      <path
         clip-rule="nonzero"
         d="m 226,88 h 6 v 9.742188 h -6 z m 0,0"
         id="path7458" />
    </clipPath>
  </defs>
  <g
     inkscape:groupmode="layer"
     id="layer2"
     inkscape:label="Layer 2" />
  <g
     inkscape:groupmode="layer"
     id="layer3"
     inkscape:label="Layer 3" />
  <g
     inkscape:label="Layer 1"
     inkscape:groupmode="layer"
     id="layer1">
    <rect
       style="fill:none;fill-opacity:0.350897;fill-rule:evenodd;stroke:#000000;stroke-width:1.84535;stroke-dasharray:none;stroke-opacity:1"
       id="rect896"
       width="216.69998"
       height="131.42073"
       x="4.3457279"
       y="4.6268582" />
    <text
       xml:space="preserve"
       style="font-style:normal;font-weight:normal;font-size:10.5833px;line-height:1.25;font-family:sans-serif;fill:#000000;fill-opacity:1;stroke:none;stroke-width:0.264583"
       x="88.279785"
       y="88.057564"
       id="text9823"><tspan
         sodipodi:role="line"
         id="tspan9821"
         style="stroke-width:0.264583"
         x="88.279785"
         y="88.057564" /></text>
    <ellipse
       style="fill:none;fill-opacity:0.855745;fill-rule:evenodd;stroke:#000000;stroke-width:1.013;stroke-dasharray:1.01300001, 1.01300001;stroke-opacity:0.17503148;stroke-dashoffset:0"
       id="path18958"
       cx="151.01385"
       cy="69.084099"
       rx="28.205387"
       ry="24.89971" />
    <text
       xml:space="preserve"
       style="font-style:normal;font-weight:normal;font-size:10.5833px;line-height:1.25;font-family:sans-serif;fill:#000000;fill-opacity:1;stroke:none;stroke-width:0.264583"
       x="7.6846805"
       y="15.737042"
       id="text21186"><tspan
         sodipodi:role="line"
         id="tspan21184"
         style="stroke-width:0.264583;font-weight:bold"
         x="7.6846805"
         y="15.737042">Step 1) define surfaces</tspan><tspan
         sodipodi:role="line"
         style="stroke-width:0.264583"
         x="7.6846805"
         y="28.966166"
         id="tspan21188">Step 2) define volumes</tspan><tspan
         sodipodi:role="line"
         style="stroke-width:0.264583"
         x="7.6846805"
         y="42.195293"
         id="tspan21190">Step 3) define materials</tspan><tspan
         sodipodi:role="line"
         style="stroke-width:0.264583"
         x="7.6846805"
         y="55.424416"
         id="tspan21192">             that fill volumes</tspan></text>
    <path
       style="fill:none;stroke:#000000;stroke-width:1.013;stroke-linecap:butt;stroke-linejoin:miter;stroke-opacity:1;fill-opacity:0.855745;font-variation-settings:normal;opacity:1;vector-effect:none;stroke-miterlimit:4;stroke-dasharray:1.013, 1.013;stroke-dashoffset:0;-inkscape-stroke:none;stop-color:#000000;stop-opacity:1"
       d="m 149.15967,15.546339 0.67045,104.964341"
       id="path21194" />
    <path
       style="font-variation-settings:normal;opacity:1;vector-effect:none;fill:none;fill-opacity:0.855745;stroke:#000000;stroke-width:1.07987;stroke-linecap:butt;stroke-linejoin:miter;stroke-miterlimit:4;stroke-dasharray:1.07987, 1.07987;stroke-dashoffset:0;stroke-opacity:0.17503148;-inkscape-stroke:none;stop-color:#000000;stop-opacity:1"
       d="m 133.47562,27.273387 77.62773,-0.914995"
       id="path30915" />
    <path
       style="fill:none;stroke:#000000;stroke-width:1.013;stroke-linecap:butt;stroke-linejoin:miter;stroke-opacity:1;font-variation-settings:normal;opacity:1;vector-effect:none;fill-opacity:0.855745;stroke-miterlimit:4;stroke-dasharray:1.013, 1.013;stroke-dashoffset:0;-inkscape-stroke:none;stop-color:#000000;stop-opacity:1"
       d="m 192.04369,10.979826 0.3424,116.032154"
       id="path30917" />
    <path
       style="fill:none;stroke:#000000;stroke-width:1.013;stroke-linecap:butt;stroke-linejoin:miter;stroke-opacity:0.17503148;font-variation-settings:normal;opacity:1;vector-effect:none;fill-opacity:0.855745;stroke-miterlimit:4;stroke-dasharray:1.013, 1.013;stroke-dashoffset:0;-inkscape-stroke:none;stop-color:#000000;stop-opacity:1"
       d="m 133.63966,114.1668 79.41507,-0.0645"
       id="path30919" />
    <path
       style="font-variation-settings:normal;opacity:1;vector-effect:none;fill:none;fill-opacity:0.855745;stroke:#000000;stroke-width:1.2132;stroke-linecap:butt;stroke-linejoin:miter;stroke-miterlimit:4;stroke-dasharray:1.2132, 1.2132;stroke-dashoffset:0;stroke-opacity:1;-inkscape-stroke:none;stop-color:#000000;stop-opacity:1"
       d="M 128.81642,19.159681 129.4949,112.9413"
       id="path30921" />
    <g
       inkscape:label=""
       transform="translate(39.109671,86.058826)"
       id="g36126">
      <g
         fill="#000000"
         fill-opacity="1"
         id="g36"
         transform="matrix(0.352778,0,0,0.352778,-62.797,-3.96866)">
        <g
           id="use34"
           transform="translate(177.429,24.906)">
          <path
             d="m 9.796875,-8.421875 c -0.671875,0.125 -0.921875,0.609375 -0.921875,1 0,0.5 0.40625,0.671875 0.6875,0.671875 0.625,0 1.0625,-0.546875 1.0625,-1.09375 0,-0.875 -1,-1.265625 -1.859375,-1.265625 -1.265625,0 -1.96875,1.234375 -2.15625,1.625 -0.46875,-1.546875 -1.75,-1.625 -2.125,-1.625 -2.109375,0 -3.21875,2.703125 -3.21875,3.15625 0,0.09375 0.078125,0.1875 0.21875,0.1875 0.171875,0 0.203125,-0.125 0.25,-0.203125 0.703125,-2.296875 2.09375,-2.734375 2.6875,-2.734375 0.921875,0 1.109375,0.875 1.109375,1.375 0,0.453125 -0.125,0.921875 -0.359375,1.921875 L 4.46875,-2.578125 c -0.3125,1.234375 -0.921875,2.375 -2.015625,2.375 -0.09375,0 -0.609375,0 -1.046875,-0.265625 C 2.140625,-0.625 2.3125,-1.234375 2.3125,-1.484375 2.3125,-1.90625 2,-2.140625 1.609375,-2.140625 c -0.5,0 -1.03125,0.421875 -1.03125,1.09375 0,0.859375 0.96875,1.25 1.859375,1.25 0.984375,0 1.6875,-0.78125 2.125,-1.625 0.328125,1.21875 1.359375,1.625 2.125,1.625 2.109375,0 3.234375,-2.703125 3.234375,-3.15625 0,-0.109375 -0.09375,-0.1875 -0.21875,-0.1875 -0.1875,0 -0.203125,0.109375 -0.265625,0.265625 -0.5625,1.828125 -1.75,2.671875 -2.6875,2.671875 -0.71875,0 -1.109375,-0.546875 -1.109375,-1.390625 0,-0.453125 0.078125,-0.78125 0.40625,-2.140625 l 0.734375,-2.8125 c 0.296875,-1.234375 1,-2.15625 1.953125,-2.15625 0.046875,0 0.625,0 1.0625,0.28125 z m 0,0"
             id="path112" />
        </g>
      </g>
      <g
         fill="#000000"
         fill-opacity="1"
         id="g40"
         transform="matrix(0.352778,0,0,0.352778,-62.797,-3.96866)">
        <g
           id="use38"
           transform="translate(193.51801,24.906)">
          <path
             d="m 13.609375,-4.75 c 0.359375,0 0.71875,0 0.71875,-0.421875 0,-0.40625 -0.359375,-0.40625 -0.71875,-0.40625 H 2.4375 c -0.34375,0 -0.71875,0 -0.71875,0.40625 0,0.421875 0.375,0.421875 0.71875,0.421875 z m 0,0"
             id="path116" />
        </g>
      </g>
      <g
         fill="#000000"
         fill-opacity="1"
         id="g44"
         transform="matrix(0.352778,0,0,0.352778,-62.797,-3.96866)">
        <g
           id="use42"
           transform="translate(214.17999,24.906)">
          <path
             d="m 9.796875,-8.421875 c -0.671875,0.125 -0.921875,0.609375 -0.921875,1 0,0.5 0.40625,0.671875 0.6875,0.671875 0.625,0 1.0625,-0.546875 1.0625,-1.09375 0,-0.875 -1,-1.265625 -1.859375,-1.265625 -1.265625,0 -1.96875,1.234375 -2.15625,1.625 -0.46875,-1.546875 -1.75,-1.625 -2.125,-1.625 -2.109375,0 -3.21875,2.703125 -3.21875,3.15625 0,0.09375 0.078125,0.1875 0.21875,0.1875 0.171875,0 0.203125,-0.125 0.25,-0.203125 0.703125,-2.296875 2.09375,-2.734375 2.6875,-2.734375 0.921875,0 1.109375,0.875 1.109375,1.375 0,0.453125 -0.125,0.921875 -0.359375,1.921875 L 4.46875,-2.578125 c -0.3125,1.234375 -0.921875,2.375 -2.015625,2.375 -0.09375,0 -0.609375,0 -1.046875,-0.265625 C 2.140625,-0.625 2.3125,-1.234375 2.3125,-1.484375 2.3125,-1.90625 2,-2.140625 1.609375,-2.140625 c -0.5,0 -1.03125,0.421875 -1.03125,1.09375 0,0.859375 0.96875,1.25 1.859375,1.25 0.984375,0 1.6875,-0.78125 2.125,-1.625 0.328125,1.21875 1.359375,1.625 2.125,1.625 2.109375,0 3.234375,-2.703125 3.234375,-3.15625 0,-0.109375 -0.09375,-0.1875 -0.21875,-0.1875 -0.1875,0 -0.203125,0.109375 -0.265625,0.265625 -0.5625,1.828125 -1.75,2.671875 -2.6875,2.671875 -0.71875,0 -1.109375,-0.546875 -1.109375,-1.390625 0,-0.453125 0.078125,-0.78125 0.40625,-2.140625 l 0.734375,-2.8125 c 0.296875,-1.234375 1,-2.15625 1.953125,-2.15625 0.046875,0 0.625,0 1.0625,0.28125 z m 0,0"
             id="path120" />
        </g>
      </g>
      <g
         fill="#000000"
         fill-opacity="1"
         id="g48"
         transform="matrix(0.352778,0,0,0.352778,-62.797,-3.96866)">
        <g
           id="use46"
           transform="translate(225.677,28.006001)">
          <path
             d="m 6.421875,-4.59375 c 0,-1.1875 -0.0625,-2.34375 -0.578125,-3.4375 -0.59375,-1.1875 -1.625,-1.5 -2.328125,-1.5 -0.828125,0 -1.859375,0.40625 -2.375,1.59375 -0.40625,0.90625 -0.546875,1.796875 -0.546875,3.34375 0,1.390625 0.09375,2.4375 0.609375,3.453125 0.5625,1.09375 1.546875,1.4375 2.296875,1.4375 1.25,0 1.96875,-0.734375 2.375,-1.578125 0.515625,-1.078125 0.546875,-2.484375 0.546875,-3.3125 z M 3.5,0.015625 C 3.046875,0.015625 2.109375,-0.25 1.84375,-1.8125 1.671875,-2.671875 1.671875,-3.765625 1.671875,-4.765625 1.671875,-5.9375 1.671875,-7 1.90625,-7.84375 2.15625,-8.8125 2.890625,-9.25 3.5,-9.25 c 0.546875,0 1.375,0.328125 1.65625,1.5625 0.171875,0.8125 0.171875,1.953125 0.171875,2.921875 0,0.96875 0,2.046875 -0.15625,2.921875 C 4.90625,-0.265625 4,0.015625 3.5,0.015625 Z m 0,0"
             id="path124" />
        </g>
      </g>
      <g
         fill="#000000"
         fill-opacity="1"
         id="g52"
         transform="matrix(0.352778,0,0,0.352778,-62.797,-3.96866)">
        <g
           id="use50"
           transform="translate(238.938,24.906)">
          <path
             d="m 13.28125,-6.625 c 0.3125,0 0.625,0 0.625,-0.359375 0,-0.375 -0.359375,-0.375 -0.703125,-0.375 H 1.65625 c -0.359375,0 -0.703125,0 -0.703125,0.375 0,0.359375 0.3125,0.359375 0.609375,0.359375 z m -0.07813,3.671875 c 0.34375,0 0.703125,0 0.703125,-0.375 0,-0.34375 -0.3125,-0.34375 -0.625,-0.34375 H 1.5625 c -0.296875,0 -0.609375,0 -0.609375,0.34375 0,0.375 0.34375,0.375 0.703125,0.375 z m 0,0"
             id="path128" />
        </g>
      </g>
      <g
         fill="#000000"
         fill-opacity="1"
         id="g56"
         transform="matrix(0.352778,0,0,0.352778,-62.797,-3.96866)">
        <g
           id="use54"
           transform="translate(259.55505,24.906)">
          <path
             d="m 8.671875,-6.625 c 0,-1.265625 -0.015625,-3.40625 -0.890625,-5.0625 -0.765625,-1.453125 -1.984375,-1.96875 -3.046875,-1.96875 -1,0 -2.25,0.453125 -3.046875,1.9375 -0.8125,1.5625 -0.90625,3.484375 -0.90625,5.09375 0,1.171875 0.03125,2.96875 0.671875,4.53125 0.875,2.140625 2.46875,2.421875 3.28125,2.421875 C 5.6875,0.328125 7.125,-0.0625 7.96875,-2.03125 8.59375,-3.453125 8.671875,-5.125 8.671875,-6.625 Z M 4.734375,0 C 3.40625,0 2.625,-1.140625 2.328125,-2.703125 c -0.21875,-1.21875 -0.21875,-3 -0.21875,-4.15625 0,-1.59375 0,-2.90625 0.265625,-4.171875 0.390625,-1.75 1.546875,-2.296875 2.359375,-2.296875 0.84375,0 1.9375,0.5625 2.328125,2.25 0.265625,1.1875 0.296875,2.5625 0.296875,4.21875 0,1.34375 0,3 -0.25,4.21875 C 6.671875,-0.390625 5.453125,0 4.734375,0 Z m 0,0"
             id="path132" />
        </g>
      </g>
      <g
         fill="#000000"
         fill-opacity="1"
         id="g60"
         transform="matrix(0.352778,0,0,0.352778,-62.797,-3.96866)">
        <g
           id="use58"
           transform="translate(177.429,59.775002)">
          <path
             d="m 9.796875,-8.421875 c -0.671875,0.125 -0.921875,0.609375 -0.921875,1 0,0.5 0.40625,0.671875 0.6875,0.671875 0.625,0 1.0625,-0.546875 1.0625,-1.09375 0,-0.875 -1,-1.265625 -1.859375,-1.265625 -1.265625,0 -1.96875,1.234375 -2.15625,1.625 -0.46875,-1.546875 -1.75,-1.625 -2.125,-1.625 -2.109375,0 -3.21875,2.703125 -3.21875,3.15625 0,0.09375 0.078125,0.1875 0.21875,0.1875 0.171875,0 0.203125,-0.125 0.25,-0.203125 0.703125,-2.296875 2.09375,-2.734375 2.6875,-2.734375 0.921875,0 1.109375,0.875 1.109375,1.375 0,0.453125 -0.125,0.921875 -0.359375,1.921875 L 4.46875,-2.578125 c -0.3125,1.234375 -0.921875,2.375 -2.015625,2.375 -0.09375,0 -0.609375,0 -1.046875,-0.265625 C 2.140625,-0.625 2.3125,-1.234375 2.3125,-1.484375 2.3125,-1.90625 2,-2.140625 1.609375,-2.140625 c -0.5,0 -1.03125,0.421875 -1.03125,1.09375 0,0.859375 0.96875,1.25 1.859375,1.25 0.984375,0 1.6875,-0.78125 2.125,-1.625 0.328125,1.21875 1.359375,1.625 2.125,1.625 2.109375,0 3.234375,-2.703125 3.234375,-3.15625 0,-0.109375 -0.09375,-0.1875 -0.21875,-0.1875 -0.1875,0 -0.203125,0.109375 -0.265625,0.265625 -0.5625,1.828125 -1.75,2.671875 -2.6875,2.671875 -0.71875,0 -1.109375,-0.546875 -1.109375,-1.390625 0,-0.453125 0.078125,-0.78125 0.40625,-2.140625 l 0.734375,-2.8125 c 0.296875,-1.234375 1,-2.15625 1.953125,-2.15625 0.046875,0 0.625,0 1.0625,0.28125 z m 0,0"
             id="path136" />
        </g>
      </g>
      <g
         fill="#000000"
         fill-opacity="1"
         id="g64"
         transform="matrix(0.352778,0,0,0.352778,-62.797,-3.96866)">
        <g
           id="use62"
           transform="translate(193.51801,59.775002)">
          <path
             d="m 13.609375,-4.75 c 0.359375,0 0.71875,0 0.71875,-0.421875 0,-0.40625 -0.359375,-0.40625 -0.71875,-0.40625 H 2.4375 c -0.34375,0 -0.71875,0 -0.71875,0.40625 0,0.421875 0.375,0.421875 0.71875,0.421875 z m 0,0"
             id="path140" />
        </g>
      </g>
      <g
         fill="#000000"
         fill-opacity="1"
         id="g68"
         transform="matrix(0.352778,0,0,0.352778,-62.797,-3.96866)">
        <g
           id="use66"
           transform="translate(214.17999,59.775002)">
          <path
             d="m 9.796875,-8.421875 c -0.671875,0.125 -0.921875,0.609375 -0.921875,1 0,0.5 0.40625,0.671875 0.6875,0.671875 0.625,0 1.0625,-0.546875 1.0625,-1.09375 0,-0.875 -1,-1.265625 -1.859375,-1.265625 -1.265625,0 -1.96875,1.234375 -2.15625,1.625 -0.46875,-1.546875 -1.75,-1.625 -2.125,-1.625 -2.109375,0 -3.21875,2.703125 -3.21875,3.15625 0,0.09375 0.078125,0.1875 0.21875,0.1875 0.171875,0 0.203125,-0.125 0.25,-0.203125 0.703125,-2.296875 2.09375,-2.734375 2.6875,-2.734375 0.921875,0 1.109375,0.875 1.109375,1.375 0,0.453125 -0.125,0.921875 -0.359375,1.921875 L 4.46875,-2.578125 c -0.3125,1.234375 -0.921875,2.375 -2.015625,2.375 -0.09375,0 -0.609375,0 -1.046875,-0.265625 C 2.140625,-0.625 2.3125,-1.234375 2.3125,-1.484375 2.3125,-1.90625 2,-2.140625 1.609375,-2.140625 c -0.5,0 -1.03125,0.421875 -1.03125,1.09375 0,0.859375 0.96875,1.25 1.859375,1.25 0.984375,0 1.6875,-0.78125 2.125,-1.625 0.328125,1.21875 1.359375,1.625 2.125,1.625 2.109375,0 3.234375,-2.703125 3.234375,-3.15625 0,-0.109375 -0.09375,-0.1875 -0.21875,-0.1875 -0.1875,0 -0.203125,0.109375 -0.265625,0.265625 -0.5625,1.828125 -1.75,2.671875 -2.6875,2.671875 -0.71875,0 -1.109375,-0.546875 -1.109375,-1.390625 0,-0.453125 0.078125,-0.78125 0.40625,-2.140625 l 0.734375,-2.8125 c 0.296875,-1.234375 1,-2.15625 1.953125,-2.15625 0.046875,0 0.625,0 1.0625,0.28125 z m 0,0"
             id="path144" />
        </g>
      </g>
      <g
         fill="#000000"
         fill-opacity="1"
         id="g72"
         transform="matrix(0.352778,0,0,0.352778,-62.797,-3.96866)">
        <g
           id="use70"
           transform="translate(225.677,62.875)">
          <path
             d="m 4.125,-9.1875 c 0,-0.34375 0,-0.34375 -0.28125,-0.34375 C 3.5,-9.15625 2.78125,-8.625 1.3125,-8.625 v 0.421875 c 0.328125,0 1.046875,0 1.828125,-0.375 v 7.46875 c 0,0.515625 -0.046875,0.6875 -1.296875,0.6875 H 1.390625 V 0 c 0.390625,-0.03125 1.78125,-0.03125 2.25,-0.03125 0.46875,0 1.859375,0 2.234375,0.03125 V -0.421875 H 5.4375 c -1.265625,0 -1.3125,-0.171875 -1.3125,-0.6875 z m 0,0"
             id="path148" />
        </g>
      </g>
      <g
         fill="#000000"
         fill-opacity="1"
         id="g76"
         transform="matrix(0.352778,0,0,0.352778,-62.797,-3.96866)">
        <g
           id="use74"
           transform="translate(238.938,59.775002)">
          <path
             d="m 13.28125,-6.625 c 0.3125,0 0.625,0 0.625,-0.359375 0,-0.375 -0.359375,-0.375 -0.703125,-0.375 H 1.65625 c -0.359375,0 -0.703125,0 -0.703125,0.375 0,0.359375 0.3125,0.359375 0.609375,0.359375 z m -0.07813,3.671875 c 0.34375,0 0.703125,0 0.703125,-0.375 0,-0.34375 -0.3125,-0.34375 -0.625,-0.34375 H 1.5625 c -0.296875,0 -0.609375,0 -0.609375,0.34375 0,0.375 0.34375,0.375 0.703125,0.375 z m 0,0"
             id="path152" />
        </g>
      </g>
      <g
         fill="#000000"
         fill-opacity="1"
         id="g80"
         transform="matrix(0.352778,0,0,0.352778,-62.797,-3.96866)">
        <g
           id="use78"
           transform="translate(259.55505,59.775002)">
          <path
             d="m 8.671875,-6.625 c 0,-1.265625 -0.015625,-3.40625 -0.890625,-5.0625 -0.765625,-1.453125 -1.984375,-1.96875 -3.046875,-1.96875 -1,0 -2.25,0.453125 -3.046875,1.9375 -0.8125,1.5625 -0.90625,3.484375 -0.90625,5.09375 0,1.171875 0.03125,2.96875 0.671875,4.53125 0.875,2.140625 2.46875,2.421875 3.28125,2.421875 C 5.6875,0.328125 7.125,-0.0625 7.96875,-2.03125 8.59375,-3.453125 8.671875,-5.125 8.671875,-6.625 Z M 4.734375,0 C 3.40625,0 2.625,-1.140625 2.328125,-2.703125 c -0.21875,-1.21875 -0.21875,-3 -0.21875,-4.15625 0,-1.59375 0,-2.90625 0.265625,-4.171875 0.390625,-1.75 1.546875,-2.296875 2.359375,-2.296875 0.84375,0 1.9375,0.5625 2.328125,2.25 0.265625,1.1875 0.296875,2.5625 0.296875,4.21875 0,1.34375 0,3 -0.25,4.21875 C 6.671875,-0.390625 5.453125,0 4.734375,0 Z m 0,0"
             id="path156" />
        </g>
      </g>
      <g
         fill="#000000"
         fill-opacity="1"
         id="g84"
         transform="matrix(0.352778,0,0,0.352778,-62.797,-3.96866)">
        <g
           id="use82"
           transform="translate(177.429,94.644997)">
          <path
             d="m 9.796875,-8.421875 c -0.671875,0.125 -0.921875,0.609375 -0.921875,1 0,0.5 0.40625,0.671875 0.6875,0.671875 0.625,0 1.0625,-0.546875 1.0625,-1.09375 0,-0.875 -1,-1.265625 -1.859375,-1.265625 -1.265625,0 -1.96875,1.234375 -2.15625,1.625 -0.46875,-1.546875 -1.75,-1.625 -2.125,-1.625 -2.109375,0 -3.21875,2.703125 -3.21875,3.15625 0,0.09375 0.078125,0.1875 0.21875,0.1875 0.171875,0 0.203125,-0.125 0.25,-0.203125 0.703125,-2.296875 2.09375,-2.734375 2.6875,-2.734375 0.921875,0 1.109375,0.875 1.109375,1.375 0,0.453125 -0.125,0.921875 -0.359375,1.921875 L 4.46875,-2.578125 c -0.3125,1.234375 -0.921875,2.375 -2.015625,2.375 -0.09375,0 -0.609375,0 -1.046875,-0.265625 C 2.140625,-0.625 2.3125,-1.234375 2.3125,-1.484375 2.3125,-1.90625 2,-2.140625 1.609375,-2.140625 c -0.5,0 -1.03125,0.421875 -1.03125,1.09375 0,0.859375 0.96875,1.25 1.859375,1.25 0.984375,0 1.6875,-0.78125 2.125,-1.625 0.328125,1.21875 1.359375,1.625 2.125,1.625 2.109375,0 3.234375,-2.703125 3.234375,-3.15625 0,-0.109375 -0.09375,-0.1875 -0.21875,-0.1875 -0.1875,0 -0.203125,0.109375 -0.265625,0.265625 -0.5625,1.828125 -1.75,2.671875 -2.6875,2.671875 -0.71875,0 -1.109375,-0.546875 -1.109375,-1.390625 0,-0.453125 0.078125,-0.78125 0.40625,-2.140625 l 0.734375,-2.8125 c 0.296875,-1.234375 1,-2.15625 1.953125,-2.15625 0.046875,0 0.625,0 1.0625,0.28125 z m 0,0"
             id="path160" />
        </g>
      </g>
      <g
         fill="#000000"
         fill-opacity="1"
         id="g88"
         transform="matrix(0.352778,0,0,0.352778,-62.797,-3.96866)">
        <g
           id="use86"
           transform="translate(193.51801,94.644997)">
          <path
             d="m 13.609375,-4.75 c 0.359375,0 0.71875,0 0.71875,-0.421875 0,-0.40625 -0.359375,-0.40625 -0.71875,-0.40625 H 2.4375 c -0.34375,0 -0.71875,0 -0.71875,0.40625 0,0.421875 0.375,0.421875 0.71875,0.421875 z m 0,0"
             id="path164" />
        </g>
      </g>
      <g
         fill="#000000"
         fill-opacity="1"
         id="g92"
         transform="matrix(0.352778,0,0,0.352778,-62.797,-3.96866)">
        <g
           id="use90"
           transform="translate(214.17999,94.644997)">
          <path
             d="m 9.796875,-8.421875 c -0.671875,0.125 -0.921875,0.609375 -0.921875,1 0,0.5 0.40625,0.671875 0.6875,0.671875 0.625,0 1.0625,-0.546875 1.0625,-1.09375 0,-0.875 -1,-1.265625 -1.859375,-1.265625 -1.265625,0 -1.96875,1.234375 -2.15625,1.625 -0.46875,-1.546875 -1.75,-1.625 -2.125,-1.625 -2.109375,0 -3.21875,2.703125 -3.21875,3.15625 0,0.09375 0.078125,0.1875 0.21875,0.1875 0.171875,0 0.203125,-0.125 0.25,-0.203125 0.703125,-2.296875 2.09375,-2.734375 2.6875,-2.734375 0.921875,0 1.109375,0.875 1.109375,1.375 0,0.453125 -0.125,0.921875 -0.359375,1.921875 L 4.46875,-2.578125 c -0.3125,1.234375 -0.921875,2.375 -2.015625,2.375 -0.09375,0 -0.609375,0 -1.046875,-0.265625 C 2.140625,-0.625 2.3125,-1.234375 2.3125,-1.484375 2.3125,-1.90625 2,-2.140625 1.609375,-2.140625 c -0.5,0 -1.03125,0.421875 -1.03125,1.09375 0,0.859375 0.96875,1.25 1.859375,1.25 0.984375,0 1.6875,-0.78125 2.125,-1.625 0.328125,1.21875 1.359375,1.625 2.125,1.625 2.109375,0 3.234375,-2.703125 3.234375,-3.15625 0,-0.109375 -0.09375,-0.1875 -0.21875,-0.1875 -0.1875,0 -0.203125,0.109375 -0.265625,0.265625 -0.5625,1.828125 -1.75,2.671875 -2.6875,2.671875 -0.71875,0 -1.109375,-0.546875 -1.109375,-1.390625 0,-0.453125 0.078125,-0.78125 0.40625,-2.140625 l 0.734375,-2.8125 c 0.296875,-1.234375 1,-2.15625 1.953125,-2.15625 0.046875,0 0.625,0 1.0625,0.28125 z m 0,0"
             id="path168" />
        </g>
      </g>
      <g
         clip-path="url(#clipPath1800)"
         id="g98"
         transform="matrix(0.352778,0,0,0.352778,-62.797,-3.96866)">
        <g
           fill="#000000"
           fill-opacity="1"
           id="g96">
          <g
             id="use94"
             transform="translate(225.677,97.744003)">
            <path
               d="M 6.3125,-2.40625 H 6 c -0.046875,0.234375 -0.15625,1.03125 -0.3125,1.265625 -0.09375,0.125 -0.90625,0.125 -1.34375,0.125 H 1.6875 c 0.390625,-0.328125 1.265625,-1.25 1.640625,-1.59375 2.1875,-2.015625 2.984375,-2.75 2.984375,-4.171875 0,-1.65625 -1.3125,-2.75 -2.96875,-2.75 -1.671875,0 -2.640625,1.40625 -2.640625,2.640625 0,0.734375 0.625,0.734375 0.671875,0.734375 0.296875,0 0.671875,-0.21875 0.671875,-0.671875 C 2.046875,-7.234375 1.78125,-7.5 1.375,-7.5 1.25,-7.5 1.21875,-7.5 1.171875,-7.484375 1.453125,-8.46875 2.21875,-9.125 3.15625,-9.125 4.375,-9.125 5.125,-8.109375 5.125,-6.78125 5.125,-5.5625 4.421875,-4.5 3.59375,-3.578125 L 0.703125,-0.34375 V 0 H 5.9375 Z m 0,0"
               id="path172" />
          </g>
        </g>
      </g>
      <g
         fill="#000000"
         fill-opacity="1"
         id="g102"
         transform="matrix(0.352778,0,0,0.352778,-62.797,-3.96866)">
        <g
           id="use100"
           transform="translate(238.938,94.644997)">
          <path
             d="m 13.28125,-6.625 c 0.3125,0 0.625,0 0.625,-0.359375 0,-0.375 -0.359375,-0.375 -0.703125,-0.375 H 1.65625 c -0.359375,0 -0.703125,0 -0.703125,0.375 0,0.359375 0.3125,0.359375 0.609375,0.359375 z m -0.07813,3.671875 c 0.34375,0 0.703125,0 0.703125,-0.375 0,-0.34375 -0.3125,-0.34375 -0.625,-0.34375 H 1.5625 c -0.296875,0 -0.609375,0 -0.609375,0.34375 0,0.375 0.34375,0.375 0.703125,0.375 z m 0,0"
             id="path176" />
        </g>
      </g>
      <g
         fill="#000000"
         fill-opacity="1"
         id="g106"
         transform="matrix(0.352778,0,0,0.352778,-62.797,-3.96866)">
        <g
           id="use104"
           transform="translate(259.55505,94.644997)">
          <path
             d="m 8.671875,-6.625 c 0,-1.265625 -0.015625,-3.40625 -0.890625,-5.0625 -0.765625,-1.453125 -1.984375,-1.96875 -3.046875,-1.96875 -1,0 -2.25,0.453125 -3.046875,1.9375 -0.8125,1.5625 -0.90625,3.484375 -0.90625,5.09375 0,1.171875 0.03125,2.96875 0.671875,4.53125 0.875,2.140625 2.46875,2.421875 3.28125,2.421875 C 5.6875,0.328125 7.125,-0.0625 7.96875,-2.03125 8.59375,-3.453125 8.671875,-5.125 8.671875,-6.625 Z M 4.734375,0 C 3.40625,0 2.625,-1.140625 2.328125,-2.703125 c -0.21875,-1.21875 -0.21875,-3 -0.21875,-4.15625 0,-1.59375 0,-2.90625 0.265625,-4.171875 0.390625,-1.75 1.546875,-2.296875 2.359375,-2.296875 0.84375,0 1.9375,0.5625 2.328125,2.25 0.265625,1.1875 0.296875,2.5625 0.296875,4.21875 0,1.34375 0,3 -0.25,4.21875 C 6.671875,-0.390625 5.453125,0 4.734375,0 Z m 0,0"
             id="path180" />
        </g>
      </g>
    </g>
    <text
       xml:space="preserve"
       style="font-style:normal;font-weight:normal;font-size:10.5833px;line-height:1.25;font-family:sans-serif;fill:#000000;fill-opacity:1;stroke:none;stroke-width:0.264583"
       x="16.383524"
       y="80.408524"
       id="text36553"><tspan
         sodipodi:role="line"
         id="tspan36551"
         style="stroke-width:0.264583"
         x="16.383524"
         y="80.408524">openmc.XPlane</tspan></text>
  </g>
</svg>
