<?xml version="1.0" encoding="UTF-8" standalone="no"?>
<!-- Created with Inkscape (http://www.inkscape.org/) -->

<svg
   width="226.39999mm"
   height="139.89999mm"
   viewBox="0 0 226.39999 139.89999"
   version="1.1"
   id="svg5"
   inkscape:version="1.2.2 (b0a8486541, 2022-12-01)"
   sodipodi:docname="csg8.svg"
   xmlns:inkscape="http://www.inkscape.org/namespaces/inkscape"
   xmlns:sodipodi="http://sodipodi.sourceforge.net/DTD/sodipodi-0.dtd"
   xmlns="http://www.w3.org/2000/svg"
   xmlns:svg="http://www.w3.org/2000/svg">
  <sodipodi:namedview
     id="namedview7"
     pagecolor="#ffffff"
     bordercolor="#666666"
     borderopacity="1.0"
     inkscape:showpageshadow="2"
     inkscape:pageopacity="0.0"
     inkscape:pagecheckerboard="0"
     inkscape:deskcolor="#d1d1d1"
     inkscape:document-units="mm"
     showgrid="false"
     inkscape:zoom="1.1612897"
     inkscape:cx="399.55577"
     inkscape:cy="216.56956"
     inkscape:window-width="1914"
     inkscape:window-height="1032"
     inkscape:window-x="0"
     inkscape:window-y="42"
     inkscape:window-maximized="1"
     inkscape:current-layer="layer1" />
  <defs
     id="defs2">
    <clipPath
       id="clipPath9122">
      <path
         clip-rule="nonzero"
         d="M 1,1 H 7 V 21.890625 H 1 Z m 0,0"
         id="path6450" />
    </clipPath>
    <clipPath
       id="clipPath8826">
      <path
         clip-rule="nonzero"
         d="m 64,1 h 5 v 20.890625 h -5 z m 0,0"
         id="path8075" />
    </clipPath>
    <clipPath
       id="clipPath637">
      <path
         clip-rule="nonzero"
         d="m 103,1 h 6 v 20.890625 h -6 z m 0,0"
         id="path6657" />
    </clipPath>
    <clipPath
       id="clipPath9260">
      <path
         clip-rule="nonzero"
         d="m 163,1 h 5 v 20.890625 h -5 z m 0,0"
         id="path1782" />
    </clipPath>
    <clipPath
       id="clipPath1800">
      <path
         clip-rule="nonzero"
         d="m 226,88 h 6 v 9.742188 h -6 z m 0,0"
         id="path7458" />
    </clipPath>
    <clipPath
       id="clipPath7647">
      <path
         clip-rule="nonzero"
         d="m 179,50 h 10 v 13.792969 h -10 z m 0,0"
         id="path3516" />
    </clipPath>
    <clipPath
       id="clipPath6251">
      <path
         clip-rule="nonzero"
         d="m 215,50 h 10 v 13.792969 h -10 z m 0,0"
         id="path3585" />
    </clipPath>
    <clipPath
       id="clipPath2233">
      <path
         clip-rule="nonzero"
         d="M 1,1 H 7 V 21.890625 H 1 Z m 0,0"
         id="path9021" />
    </clipPath>
    <clipPath
       id="clipPath2031">
      <path
         clip-rule="nonzero"
         d="m 64,1 h 5 v 20.890625 h -5 z m 0,0"
         id="path3882" />
    </clipPath>
    <clipPath
       id="clipPath9167">
      <path
         clip-rule="nonzero"
         d="m 103,1 h 6 v 20.890625 h -6 z m 0,0"
         id="path7215" />
    </clipPath>
    <clipPath
       id="clipPath6472">
      <path
         clip-rule="nonzero"
         d="m 163,1 h 5 v 20.890625 h -5 z m 0,0"
         id="path2788" />
    </clipPath>
  </defs>
  <g
     inkscape:groupmode="layer"
     id="layer2"
     inkscape:label="Layer 2" />
  <g
     inkscape:groupmode="layer"
     id="layer3"
     inkscape:label="Layer 3" />
  <g
     inkscape:label="Layer 1"
     inkscape:groupmode="layer"
     id="layer1">
    <rect
       style="fill:none;fill-opacity:0.350897;fill-rule:evenodd;stroke:#000000;stroke-width:1.84535;stroke-dasharray:none;stroke-opacity:1"
       id="rect896"
       width="216.69998"
       height="131.42073"
       x="4.3457279"
       y="4.6268582" />
    <text
       xml:space="preserve"
       style="font-style:normal;font-weight:normal;font-size:10.5833px;line-height:1.25;font-family:sans-serif;fill:#000000;fill-opacity:1;stroke:none;stroke-width:0.264583"
       x="88.279785"
       y="88.057564"
       id="text9823"><tspan
         sodipodi:role="line"
         id="tspan9821"
         style="stroke-width:0.264583"
         x="88.279785"
         y="88.057564" /></text>
    <ellipse
       style="fill:#6f6fff;fill-opacity:0.855745;fill-rule:evenodd;stroke:#000000;stroke-width:1.31333;stroke-dasharray:none;stroke-opacity:1;stroke-dashoffset:0;font-variation-settings:normal;opacity:1;vector-effect:none;stroke-linecap:butt;stroke-linejoin:miter;stroke-miterlimit:4;-inkscape-stroke:none;stop-color:#000000;stop-opacity:1"
       id="path18958"
       cx="151.01385"
       cy="69.084099"
       rx="28.205387"
       ry="24.89971" />
    <text
       xml:space="preserve"
       style="font-style:normal;font-weight:normal;font-size:10.5833px;line-height:1.25;font-family:sans-serif;fill:#000000;fill-opacity:1;stroke:none;stroke-width:0.264583"
       x="7.6846805"
       y="15.737042"
       id="text21186"><tspan
         sodipodi:role="line"
         id="tspan21184"
         style="stroke-width:0.264583;font-weight:normal"
         x="7.6846805"
         y="15.737042">Step 1) define surfaces</tspan><tspan
         sodipodi:role="line"
         style="stroke-width:0.264583;font-weight:bold"
         x="7.6846805"
         y="28.966166"
         id="tspan21188">Step 2) define volumes</tspan><tspan
         sodipodi:role="line"
         style="stroke-width:0.264583"
         x="7.6846805"
         y="42.195293"
         id="tspan21190">Step 3) define materials</tspan><tspan
         sodipodi:role="line"
         style="stroke-width:0.264583"
         x="7.6846805"
         y="55.424416"
         id="tspan21192">             that fill volumes</tspan></text>
    <path
       style="fill:none;stroke:#000000;stroke-width:1.013;stroke-linecap:butt;stroke-linejoin:miter;stroke-opacity:1;fill-opacity:0.855745;font-variation-settings:normal;opacity:1;vector-effect:none;stroke-miterlimit:4;stroke-dasharray:1.013, 1.013;stroke-dashoffset:0;-inkscape-stroke:none;stop-color:#000000;stop-opacity:1"
       d="m 149.15967,15.546339 0.67045,104.964341"
       id="path21194" />
    <path
       style="font-variation-settings:normal;opacity:1;vector-effect:none;fill:none;fill-opacity:0.855745;stroke:#000000;stroke-width:1.07987;stroke-linecap:butt;stroke-linejoin:miter;stroke-miterlimit:4;stroke-dasharray:1.07987, 1.07987;stroke-dashoffset:0;stroke-opacity:1;-inkscape-stroke:none;stop-color:#000000;stop-opacity:1"
       d="m 133.47562,27.273387 77.62773,-0.914995"
       id="path30915" />
    <path
       style="fill:none;stroke:#000000;stroke-width:1.013;stroke-linecap:butt;stroke-linejoin:miter;stroke-opacity:1;font-variation-settings:normal;opacity:1;vector-effect:none;fill-opacity:0.855745;stroke-miterlimit:4;stroke-dasharray:1.013, 1.013;stroke-dashoffset:0;-inkscape-stroke:none;stop-color:#000000;stop-opacity:1"
       d="m 192.04369,10.979826 0.3424,116.032154"
       id="path30917" />
    <path
       style="fill:none;stroke:#000000;stroke-width:1.013;stroke-linecap:butt;stroke-linejoin:miter;stroke-opacity:1;font-variation-settings:normal;opacity:1;vector-effect:none;fill-opacity:0.855745;stroke-miterlimit:4;stroke-dasharray:1.013, 1.013;stroke-dashoffset:0;-inkscape-stroke:none;stop-color:#000000;stop-opacity:1"
       d="m 133.63966,114.1668 79.41507,-0.0645"
       id="path30919" />
    <path
       style="font-variation-settings:normal;opacity:1;vector-effect:none;fill:none;fill-opacity:0.855745;stroke:#000000;stroke-width:1.2132;stroke-linecap:butt;stroke-linejoin:miter;stroke-miterlimit:4;stroke-dasharray:1.2132, 1.2132;stroke-dashoffset:0;stroke-opacity:1;-inkscape-stroke:none;stop-color:#000000;stop-opacity:1"
       d="M 128.81642,19.159681 129.4949,112.9413"
       id="path30921" />
    <g
       inkscape:label=""
       transform="translate(12.821026,100.05467)"
       id="g46493">
      <g
         clip-path="url(#clipPath2233)"
         id="g56"
         transform="matrix(0.352778,0,0,0.352778,-0.655946,0.100983)">
        <g
           fill="#000000"
           fill-opacity="1"
           id="g54">
          <g
             id="use52"
             transform="translate(0,16.743999)">
            <path
               d="m 6.328125,5.046875 c 0,-0.03125 0,-0.0625 -0.0625,-0.125 -0.953125,-0.96875 -3.5,-3.625 -3.5,-10.0625 0,-6.453125 2.5,-9.078125 3.515625,-10.109375 0,-0.01563 0.046875,-0.0625 0.046875,-0.125 0,-0.0625 -0.0625,-0.09375 -0.15625,-0.09375 -0.21875,0 -1.984375,1.53125 -2.984375,3.796875 -1.046875,2.296875 -1.328125,4.53125 -1.328125,6.5 0,1.5 0.140625,4.015625 1.390625,6.6875 0.984375,2.140625 2.671875,3.65625 2.921875,3.65625 0.109375,0 0.15625,-0.046875 0.15625,-0.125 z m 0,0"
               id="path136" />
          </g>
        </g>
      </g>
      <g
         fill="#000000"
         fill-opacity="1"
         id="g60"
         transform="matrix(0.352778,0,0,0.352778,-0.655946,0.100983)">
        <g
           id="use58"
           transform="translate(7.3169999,16.743999)">
          <path
             d="m 9.796875,-8.421875 c -0.671875,0.125 -0.921875,0.609375 -0.921875,1 0,0.5 0.40625,0.671875 0.6875,0.671875 0.625,0 1.0625,-0.546875 1.0625,-1.09375 0,-0.875 -1,-1.265625 -1.859375,-1.265625 -1.265625,0 -1.96875,1.234375 -2.15625,1.625 -0.46875,-1.546875 -1.75,-1.625 -2.125,-1.625 -2.109375,0 -3.21875,2.703125 -3.21875,3.15625 0,0.09375 0.078125,0.1875 0.21875,0.1875 0.171875,0 0.203125,-0.125 0.25,-0.203125 0.703125,-2.296875 2.09375,-2.734375 2.6875,-2.734375 0.921875,0 1.109375,0.875 1.109375,1.375 0,0.453125 -0.125,0.921875 -0.359375,1.921875 L 4.46875,-2.578125 c -0.3125,1.234375 -0.921875,2.375 -2.015625,2.375 -0.09375,0 -0.609375,0 -1.046875,-0.265625 C 2.140625,-0.625 2.3125,-1.234375 2.3125,-1.484375 2.3125,-1.90625 2,-2.140625 1.609375,-2.140625 c -0.5,0 -1.03125,0.421875 -1.03125,1.09375 0,0.859375 0.96875,1.25 1.859375,1.25 0.984375,0 1.6875,-0.78125 2.125,-1.625 0.328125,1.21875 1.359375,1.625 2.125,1.625 2.109375,0 3.234375,-2.703125 3.234375,-3.15625 0,-0.109375 -0.09375,-0.1875 -0.21875,-0.1875 -0.1875,0 -0.203125,0.109375 -0.265625,0.265625 -0.5625,1.828125 -1.75,2.671875 -2.6875,2.671875 -0.71875,0 -1.109375,-0.546875 -1.109375,-1.390625 0,-0.453125 0.078125,-0.78125 0.40625,-2.140625 l 0.734375,-2.8125 c 0.296875,-1.234375 1,-2.15625 1.953125,-2.15625 0.046875,0 0.625,0 1.0625,0.28125 z m 0,0"
             id="path140" />
        </g>
      </g>
      <g
         fill="#000000"
         fill-opacity="1"
         id="g64"
         transform="matrix(0.352778,0,0,0.352778,-0.655946,0.100983)">
        <g
           id="use62"
           transform="translate(23.406,16.743999)">
          <path
             d="m 13.609375,-4.75 c 0.359375,0 0.71875,0 0.71875,-0.421875 0,-0.40625 -0.359375,-0.40625 -0.71875,-0.40625 H 2.4375 c -0.34375,0 -0.71875,0 -0.71875,0.40625 0,0.421875 0.375,0.421875 0.71875,0.421875 z m 0,0"
             id="path144" />
        </g>
      </g>
      <g
         fill="#000000"
         fill-opacity="1"
         id="g68"
         transform="matrix(0.352778,0,0,0.352778,-0.655946,0.100983)">
        <g
           id="use66"
           transform="translate(44.068001,16.743999)">
          <path
             d="m 9.796875,-8.421875 c -0.671875,0.125 -0.921875,0.609375 -0.921875,1 0,0.5 0.40625,0.671875 0.6875,0.671875 0.625,0 1.0625,-0.546875 1.0625,-1.09375 0,-0.875 -1,-1.265625 -1.859375,-1.265625 -1.265625,0 -1.96875,1.234375 -2.15625,1.625 -0.46875,-1.546875 -1.75,-1.625 -2.125,-1.625 -2.109375,0 -3.21875,2.703125 -3.21875,3.15625 0,0.09375 0.078125,0.1875 0.21875,0.1875 0.171875,0 0.203125,-0.125 0.25,-0.203125 0.703125,-2.296875 2.09375,-2.734375 2.6875,-2.734375 0.921875,0 1.109375,0.875 1.109375,1.375 0,0.453125 -0.125,0.921875 -0.359375,1.921875 L 4.46875,-2.578125 c -0.3125,1.234375 -0.921875,2.375 -2.015625,2.375 -0.09375,0 -0.609375,0 -1.046875,-0.265625 C 2.140625,-0.625 2.3125,-1.234375 2.3125,-1.484375 2.3125,-1.90625 2,-2.140625 1.609375,-2.140625 c -0.5,0 -1.03125,0.421875 -1.03125,1.09375 0,0.859375 0.96875,1.25 1.859375,1.25 0.984375,0 1.6875,-0.78125 2.125,-1.625 0.328125,1.21875 1.359375,1.625 2.125,1.625 2.109375,0 3.234375,-2.703125 3.234375,-3.15625 0,-0.109375 -0.09375,-0.1875 -0.21875,-0.1875 -0.1875,0 -0.203125,0.109375 -0.265625,0.265625 -0.5625,1.828125 -1.75,2.671875 -2.6875,2.671875 -0.71875,0 -1.109375,-0.546875 -1.109375,-1.390625 0,-0.453125 0.078125,-0.78125 0.40625,-2.140625 l 0.734375,-2.8125 c 0.296875,-1.234375 1,-2.15625 1.953125,-2.15625 0.046875,0 0.625,0 1.0625,0.28125 z m 0,0"
             id="path148" />
        </g>
      </g>
      <g
         fill="#000000"
         fill-opacity="1"
         id="g72"
         transform="matrix(0.352778,0,0,0.352778,-0.655946,0.100983)">
        <g
           id="use70"
           transform="translate(55.564999,19.843)">
          <path
             d="m 6.421875,-4.59375 c 0,-1.1875 -0.0625,-2.34375 -0.578125,-3.4375 -0.59375,-1.1875 -1.625,-1.5 -2.328125,-1.5 -0.828125,0 -1.859375,0.40625 -2.375,1.59375 -0.40625,0.90625 -0.546875,1.796875 -0.546875,3.34375 0,1.390625 0.09375,2.4375 0.609375,3.453125 0.5625,1.09375 1.546875,1.4375 2.296875,1.4375 1.25,0 1.96875,-0.734375 2.375,-1.578125 0.515625,-1.078125 0.546875,-2.484375 0.546875,-3.3125 z M 3.5,0.015625 C 3.046875,0.015625 2.109375,-0.25 1.84375,-1.8125 1.671875,-2.671875 1.671875,-3.765625 1.671875,-4.765625 1.671875,-5.9375 1.671875,-7 1.90625,-7.84375 2.15625,-8.8125 2.890625,-9.25 3.5,-9.25 c 0.546875,0 1.375,0.328125 1.65625,1.5625 0.171875,0.8125 0.171875,1.953125 0.171875,2.921875 0,0.96875 0,2.046875 -0.15625,2.921875 C 4.90625,-0.265625 4,0.015625 3.5,0.015625 Z m 0,0"
             id="path152" />
        </g>
      </g>
      <g
         clip-path="url(#clipPath2031)"
         id="g78"
         transform="matrix(0.352778,0,0,0.352778,-0.655946,0.100983)">
        <g
           fill="#000000"
           fill-opacity="1"
           id="g76">
          <g
             id="use74"
             transform="translate(63.087002,16.743999)">
            <path
               d="m 5.4375,-5.140625 c 0,-1.484375 -0.15625,-4.015625 -1.390625,-6.671875 -0.984375,-2.15625 -2.6875,-3.65625 -2.9375,-3.65625 -0.0625,0 -0.140625,0.01563 -0.140625,0.125 0,0.03125 0.015625,0.0625 0.046875,0.09375 C 2,-14.21875 4.53125,-11.59375 4.53125,-5.171875 4.53125,1.28125 2.03125,3.90625 1.015625,4.9375 0.984375,4.984375 0.96875,5 0.96875,5.046875 c 0,0.09375 0.078125,0.125 0.140625,0.125 0.234375,0 1.984375,-1.53125 3,-3.8125 1.03125,-2.28125 1.328125,-4.515625 1.328125,-6.5 z m 0,0"
               id="path156" />
          </g>
        </g>
      </g>
      <g
         fill="#000000"
         fill-opacity="1"
         id="g82"
         transform="matrix(0.352778,0,0,0.352778,-0.655946,0.100983)">
        <g
           id="use80"
           transform="translate(70.403999,9.2449999)">
          <path
             d="M 6.3125,-2.40625 H 6 c -0.046875,0.234375 -0.15625,1.03125 -0.3125,1.265625 -0.09375,0.125 -0.90625,0.125 -1.34375,0.125 H 1.6875 c 0.390625,-0.328125 1.265625,-1.25 1.640625,-1.59375 2.1875,-2.015625 2.984375,-2.75 2.984375,-4.171875 0,-1.65625 -1.3125,-2.75 -2.96875,-2.75 -1.671875,0 -2.640625,1.40625 -2.640625,2.640625 0,0.734375 0.625,0.734375 0.671875,0.734375 0.296875,0 0.671875,-0.21875 0.671875,-0.671875 C 2.046875,-7.234375 1.78125,-7.5 1.375,-7.5 1.25,-7.5 1.21875,-7.5 1.171875,-7.484375 1.453125,-8.46875 2.21875,-9.125 3.15625,-9.125 4.375,-9.125 5.125,-8.109375 5.125,-6.78125 5.125,-5.5625 4.421875,-4.5 3.59375,-3.578125 L 0.703125,-0.34375 V 0 H 5.9375 Z m 0,0"
             id="path160" />
        </g>
      </g>
      <g
         fill="#000000"
         fill-opacity="1"
         id="g86"
         transform="matrix(0.352778,0,0,0.352778,-0.655946,0.100983)">
        <g
           id="use84"
           transform="translate(82.517998,16.743999)">
          <path
             d="m 7.78125,-4.796875 h 5.484375 c 0.28125,0 0.640625,0 0.640625,-0.34375 0,-0.375 -0.328125,-0.375 -0.640625,-0.375 H 7.78125 v -5.46875 c 0,-0.296875 0,-0.640625 -0.34375,-0.640625 -0.375,0 -0.375,0.328125 -0.375,0.640625 v 5.46875 H 1.59375 c -0.296875,0 -0.640625,0 -0.640625,0.34375 0,0.375 0.328125,0.375 0.640625,0.375 H 7.0625 V 0.6875 c 0,0.28125 0,0.640625 0.359375,0.640625 0.359375,0 0.359375,-0.34375 0.359375,-0.640625 z m 0,0"
             id="path164" />
        </g>
      </g>
      <g
         clip-path="url(#clipPath9167)"
         id="g92"
         transform="matrix(0.352778,0,0,0.352778,-0.655946,0.100983)">
        <g
           fill="#000000"
           fill-opacity="1"
           id="g90">
          <g
             id="use88"
             transform="translate(101.97794,16.743999)">
            <path
               d="m 6.328125,5.046875 c 0,-0.03125 0,-0.0625 -0.0625,-0.125 -0.953125,-0.96875 -3.5,-3.625 -3.5,-10.0625 0,-6.453125 2.5,-9.078125 3.515625,-10.109375 0,-0.01563 0.046875,-0.0625 0.046875,-0.125 0,-0.0625 -0.0625,-0.09375 -0.15625,-0.09375 -0.21875,0 -1.984375,1.53125 -2.984375,3.796875 -1.046875,2.296875 -1.328125,4.53125 -1.328125,6.5 0,1.5 0.140625,4.015625 1.390625,6.6875 0.984375,2.140625 2.671875,3.65625 2.921875,3.65625 0.109375,0 0.15625,-0.046875 0.15625,-0.125 z m 0,0"
               id="path168" />
          </g>
        </g>
      </g>
      <g
         fill="#000000"
         fill-opacity="1"
         id="g96"
         transform="matrix(0.352778,0,0,0.352778,-0.655946,0.100983)">
        <g
           id="use94"
           transform="translate(109.3,16.743999)">
          <path
             d="m 5.4375,2.3125 c -0.5625,0.78125 -1.375,1.484375 -2.375,1.484375 -0.25,0 -1.25,-0.03125 -1.546875,-0.984375 C 1.5625,2.828125 1.671875,2.828125 1.71875,2.828125 2.328125,2.828125 2.75,2.296875 2.75,1.8125 2.75,1.34375 2.359375,1.171875 2.046875,1.171875 c -0.328125,0 -1.0625,0.25 -1.0625,1.265625 0,1.046875 0.890625,1.78125 2.078125,1.78125 2.0625,0 4.140625,-1.90625 4.71875,-4.203125 L 9.8125,-8.03125 c 0.015625,-0.109375 0.0625,-0.234375 0.0625,-0.359375 0,-0.3125 -0.25,-0.515625 -0.5625,-0.515625 -0.1875,0 -0.609375,0.09375 -0.78125,0.703125 L 7,-2.125 c -0.09375,0.375 -0.09375,0.40625 -0.265625,0.640625 -0.40625,0.578125 -1.09375,1.28125 -2.09375,1.28125 -1.15625,0 -1.25,-1.140625 -1.25,-1.703125 0,-1.171875 0.5625,-2.765625 1.109375,-4.25 0.234375,-0.59375 0.359375,-0.890625 0.359375,-1.296875 0,-0.875 -0.625,-1.65625 -1.640625,-1.65625 -1.890625,0 -2.65625,3 -2.65625,3.15625 0,0.09375 0.078125,0.1875 0.21875,0.1875 0.1875,0 0.203125,-0.078125 0.296875,-0.375 0.484375,-1.734375 1.28125,-2.5625 2.078125,-2.5625 0.1875,0 0.546875,0 0.546875,0.6875 0,0.53125 -0.234375,1.140625 -0.546875,1.921875 -1.015625,2.703125 -1.015625,3.390625 -1.015625,3.890625 0,1.953125 1.40625,2.40625 2.4375,2.40625 0.609375,0 1.34375,-0.1875 2.078125,-0.953125 l 0.015625,0.03125 C 6.359375,0.5 6.15625,1.296875 5.4375,2.3125 Z m 0,0"
             id="path172" />
        </g>
      </g>
      <g
         fill="#000000"
         fill-opacity="1"
         id="g100"
         transform="matrix(0.352778,0,0,0.352778,-0.655946,0.100983)">
        <g
           id="use98"
           transform="translate(124.498,16.743999)">
          <path
             d="m 13.609375,-4.75 c 0.359375,0 0.71875,0 0.71875,-0.421875 0,-0.40625 -0.359375,-0.40625 -0.71875,-0.40625 H 2.4375 c -0.34375,0 -0.71875,0 -0.71875,0.40625 0,0.421875 0.375,0.421875 0.71875,0.421875 z m 0,0"
             id="path176" />
        </g>
      </g>
      <g
         fill="#000000"
         fill-opacity="1"
         id="g104"
         transform="matrix(0.352778,0,0,0.352778,-0.655946,0.100983)">
        <g
           id="use102"
           transform="translate(145.161,16.743999)">
          <path
             d="m 5.4375,2.3125 c -0.5625,0.78125 -1.375,1.484375 -2.375,1.484375 -0.25,0 -1.25,-0.03125 -1.546875,-0.984375 C 1.5625,2.828125 1.671875,2.828125 1.71875,2.828125 2.328125,2.828125 2.75,2.296875 2.75,1.8125 2.75,1.34375 2.359375,1.171875 2.046875,1.171875 c -0.328125,0 -1.0625,0.25 -1.0625,1.265625 0,1.046875 0.890625,1.78125 2.078125,1.78125 2.0625,0 4.140625,-1.90625 4.71875,-4.203125 L 9.8125,-8.03125 c 0.015625,-0.109375 0.0625,-0.234375 0.0625,-0.359375 0,-0.3125 -0.25,-0.515625 -0.5625,-0.515625 -0.1875,0 -0.609375,0.09375 -0.78125,0.703125 L 7,-2.125 c -0.09375,0.375 -0.09375,0.40625 -0.265625,0.640625 -0.40625,0.578125 -1.09375,1.28125 -2.09375,1.28125 -1.15625,0 -1.25,-1.140625 -1.25,-1.703125 0,-1.171875 0.5625,-2.765625 1.109375,-4.25 0.234375,-0.59375 0.359375,-0.890625 0.359375,-1.296875 0,-0.875 -0.625,-1.65625 -1.640625,-1.65625 -1.890625,0 -2.65625,3 -2.65625,3.15625 0,0.09375 0.078125,0.1875 0.21875,0.1875 0.1875,0 0.203125,-0.078125 0.296875,-0.375 0.484375,-1.734375 1.28125,-2.5625 2.078125,-2.5625 0.1875,0 0.546875,0 0.546875,0.6875 0,0.53125 -0.234375,1.140625 -0.546875,1.921875 -1.015625,2.703125 -1.015625,3.390625 -1.015625,3.890625 0,1.953125 1.40625,2.40625 2.4375,2.40625 0.609375,0 1.34375,-0.1875 2.078125,-0.953125 l 0.015625,0.03125 C 6.359375,0.5 6.15625,1.296875 5.4375,2.3125 Z m 0,0"
             id="path180" />
        </g>
      </g>
      <g
         fill="#000000"
         fill-opacity="1"
         id="g108"
         transform="matrix(0.352778,0,0,0.352778,-0.655946,0.100983)">
        <g
           id="use106"
           transform="translate(155.02499,19.843)">
          <path
             d="m 6.421875,-4.59375 c 0,-1.1875 -0.0625,-2.34375 -0.578125,-3.4375 -0.59375,-1.1875 -1.625,-1.5 -2.328125,-1.5 -0.828125,0 -1.859375,0.40625 -2.375,1.59375 -0.40625,0.90625 -0.546875,1.796875 -0.546875,3.34375 0,1.390625 0.09375,2.4375 0.609375,3.453125 0.5625,1.09375 1.546875,1.4375 2.296875,1.4375 1.25,0 1.96875,-0.734375 2.375,-1.578125 0.515625,-1.078125 0.546875,-2.484375 0.546875,-3.3125 z M 3.5,0.015625 C 3.046875,0.015625 2.109375,-0.25 1.84375,-1.8125 1.671875,-2.671875 1.671875,-3.765625 1.671875,-4.765625 1.671875,-5.9375 1.671875,-7 1.90625,-7.84375 2.15625,-8.8125 2.890625,-9.25 3.5,-9.25 c 0.546875,0 1.375,0.328125 1.65625,1.5625 0.171875,0.8125 0.171875,1.953125 0.171875,2.921875 0,0.96875 0,2.046875 -0.15625,2.921875 C 4.90625,-0.265625 4,0.015625 3.5,0.015625 Z m 0,0"
             id="path184" />
        </g>
      </g>
      <g
         clip-path="url(#clipPath6472)"
         id="g114"
         transform="matrix(0.352778,0,0,0.352778,-0.655946,0.100983)">
        <g
           fill="#000000"
           fill-opacity="1"
           id="g112">
          <g
             id="use110"
             transform="translate(162.547,16.743999)">
            <path
               d="m 5.4375,-5.140625 c 0,-1.484375 -0.15625,-4.015625 -1.390625,-6.671875 -0.984375,-2.15625 -2.6875,-3.65625 -2.9375,-3.65625 -0.0625,0 -0.140625,0.01563 -0.140625,0.125 0,0.03125 0.015625,0.0625 0.046875,0.09375 C 2,-14.21875 4.53125,-11.59375 4.53125,-5.171875 4.53125,1.28125 2.03125,3.90625 1.015625,4.9375 0.984375,4.984375 0.96875,5 0.96875,5.046875 c 0,0.09375 0.078125,0.125 0.140625,0.125 0.234375,0 1.984375,-1.53125 3,-3.8125 1.03125,-2.28125 1.328125,-4.515625 1.328125,-6.5 z m 0,0"
               id="path188" />
          </g>
        </g>
      </g>
      <g
         fill="#000000"
         fill-opacity="1"
         id="g118"
         transform="matrix(0.352778,0,0,0.352778,-0.655946,0.100983)">
        <g
           id="use116"
           transform="translate(169.864,9.2449999)">
          <path
             d="M 6.3125,-2.40625 H 6 c -0.046875,0.234375 -0.15625,1.03125 -0.3125,1.265625 -0.09375,0.125 -0.90625,0.125 -1.34375,0.125 H 1.6875 c 0.390625,-0.328125 1.265625,-1.25 1.640625,-1.59375 2.1875,-2.015625 2.984375,-2.75 2.984375,-4.171875 0,-1.65625 -1.3125,-2.75 -2.96875,-2.75 -1.671875,0 -2.640625,1.40625 -2.640625,2.640625 0,0.734375 0.625,0.734375 0.671875,0.734375 0.296875,0 0.671875,-0.21875 0.671875,-0.671875 C 2.046875,-7.234375 1.78125,-7.5 1.375,-7.5 1.25,-7.5 1.21875,-7.5 1.171875,-7.484375 1.453125,-8.46875 2.21875,-9.125 3.15625,-9.125 4.375,-9.125 5.125,-8.109375 5.125,-6.78125 5.125,-5.5625 4.421875,-4.5 3.59375,-3.578125 L 0.703125,-0.34375 V 0 H 5.9375 Z m 0,0"
             id="path192" />
        </g>
      </g>
      <g
         fill="#000000"
         fill-opacity="1"
         id="g122"
         transform="matrix(0.352778,0,0,0.352778,-0.655946,0.100983)">
        <g
           id="use120"
           transform="translate(183.12601,16.743999)">
          <path
             d="m 13.609375,-10.0625 c 0.375,-0.15625 0.421875,-0.3125 0.421875,-0.4375 0,-0.21875 -0.171875,-0.390625 -0.390625,-0.390625 -0.04687,0 -0.0625,0.03125 -0.359375,0.15625 L 2.109375,-5.59375 c -0.375,0.15625 -0.421875,0.3125 -0.421875,0.421875 0,0.15625 0.03125,0.28125 0.421875,0.46875 L 13.28125,0.4375 c 0.265625,0.125 0.3125,0.140625 0.359375,0.140625 0.21875,0 0.390625,-0.171875 0.390625,-0.390625 0,-0.125 -0.04687,-0.265625 -0.421875,-0.4375 L 2.96875,-5.140625 Z m 0,0"
             id="path196" />
        </g>
      </g>
      <g
         fill="#000000"
         fill-opacity="1"
         id="g126"
         transform="matrix(0.352778,0,0,0.352778,-0.655946,0.100983)">
        <g
           id="use124"
           transform="translate(204.60674,16.743999)">
          <path
             d="m 8.03125,-8.453125 c -0.640625,0.125 -0.96875,0.578125 -0.96875,1.03125 0,0.5 0.390625,0.671875 0.6875,0.671875 0.578125,0 1.046875,-0.5 1.046875,-1.125 0,-0.65625 -0.640625,-1.234375 -1.671875,-1.234375 -0.828125,0 -1.78125,0.375 -2.640625,1.625 -0.140625,-1.09375 -0.96875,-1.625 -1.796875,-1.625 -0.8125,0 -1.21875,0.625 -1.46875,1.078125 -0.34375,0.734375 -0.65625,1.984375 -0.65625,2.078125 0,0.09375 0.078125,0.1875 0.21875,0.1875 0.171875,0 0.1875,-0.015625 0.3125,-0.5 0.3125,-1.234375 0.703125,-2.4375 1.53125,-2.4375 0.5,0 0.640625,0.359375 0.640625,0.953125 0,0.453125 -0.203125,1.265625 -0.359375,1.90625 l -0.578125,2.234375 c -0.078125,0.390625 -0.296875,1.3125 -0.40625,1.6875 -0.140625,0.53125 -0.375,1.515625 -0.375,1.609375 0,0.296875 0.234375,0.515625 0.546875,0.515625 0.21875,0 0.609375,-0.140625 0.734375,-0.546875 C 2.890625,-0.515625 3.65625,-3.640625 3.78125,-4.109375 3.890625,-4.5625 4,-5 4.109375,-5.453125 4.1875,-5.75 4.28125,-6.078125 4.34375,-6.34375 4.40625,-6.53125 4.953125,-7.546875 5.46875,-8 c 0.25,-0.21875 0.796875,-0.703125 1.640625,-0.703125 0.328125,0 0.65625,0.0625 0.921875,0.25 z m 0,0"
             id="path200" />
        </g>
      </g>
      <g
         fill="#000000"
         fill-opacity="1"
         id="g130"
         transform="matrix(0.352778,0,0,0.352778,-0.655946,0.100983)">
        <g
           id="use128"
           transform="translate(214.28101,9.2449999)">
          <path
             d="M 6.3125,-2.40625 H 6 c -0.046875,0.234375 -0.15625,1.03125 -0.3125,1.265625 -0.09375,0.125 -0.90625,0.125 -1.34375,0.125 H 1.6875 c 0.390625,-0.328125 1.265625,-1.25 1.640625,-1.59375 2.1875,-2.015625 2.984375,-2.75 2.984375,-4.171875 0,-1.65625 -1.3125,-2.75 -2.96875,-2.75 -1.671875,0 -2.640625,1.40625 -2.640625,2.640625 0,0.734375 0.625,0.734375 0.671875,0.734375 0.296875,0 0.671875,-0.21875 0.671875,-0.671875 C 2.046875,-7.234375 1.78125,-7.5 1.375,-7.5 1.25,-7.5 1.21875,-7.5 1.171875,-7.484375 1.453125,-8.46875 2.21875,-9.125 3.15625,-9.125 4.375,-9.125 5.125,-8.109375 5.125,-6.78125 5.125,-5.5625 4.421875,-4.5 3.59375,-3.578125 L 0.703125,-0.34375 V 0 H 5.9375 Z m 0,0"
             id="path204" />
        </g>
      </g>
    </g>
    <text
       xml:space="preserve"
       style="font-style:normal;font-weight:normal;font-size:10.5833px;line-height:1.25;font-family:sans-serif;fill:#000000;fill-opacity:1;stroke:none;stroke-width:0.264583"
       x="10.5922"
       y="93.173523"
       id="text51648"><tspan
         sodipodi:role="line"
         id="tspan51646"
         style="stroke-width:0.264583"
         x="10.5922"
         y="93.173523">openmc.Region</tspan></text>
    <text
       xml:space="preserve"
       style="font-style:normal;font-weight:normal;font-size:7.05556px;line-height:1.25;font-family:sans-serif;fill:#000000;fill-opacity:1;stroke:none;stroke-width:0.264583"
       x="9.2321739"
       y="125.80425"
       id="text53104"><tspan
         sodipodi:role="line"
         id="tspan53102"
         style="font-size:7.05556px;stroke-width:0.264583"
         x="9.2321739"
         y="125.80425"
         rotate="0 0 0 0 0 0 0 0 0 0 0 0 0 0 0 0 0 0 0 0 0 0 0 0 0 0 0 0 0 0 0 0 0 0 0 0 0 0 0 0 0 0 0">(takes reference of original surface def.)</tspan></text>
  </g>
</svg>
