<?xml version="1.0" encoding="UTF-8" standalone="no"?>
<!-- Created with Inkscape (http://www.inkscape.org/) -->

<svg
   width="188mm"
   height="109mm"
   viewBox="0 0 188 109"
   version="1.1"
   id="svg5"
   sodipodi:docname="predictor_diagram.svg"
   inkscape:version="1.2.2 (b0a8486541, 2022-12-01)"
   xmlns:inkscape="http://www.inkscape.org/namespaces/inkscape"
   xmlns:sodipodi="http://sodipodi.sourceforge.net/DTD/sodipodi-0.dtd"
   xmlns="http://www.w3.org/2000/svg"
   xmlns:svg="http://www.w3.org/2000/svg">
  <sodipodi:namedview
     id="namedview7"
     pagecolor="#ffffff"
     bordercolor="#666666"
     borderopacity="1.0"
     inkscape:showpageshadow="2"
     inkscape:pageopacity="0.0"
     inkscape:pagecheckerboard="0"
     inkscape:deskcolor="#d1d1d1"
     inkscape:document-units="mm"
     showgrid="false"
     inkscape:zoom="1.1554953"
     inkscape:cx="421.03159"
     inkscape:cy="333.62318"
     inkscape:window-width="1914"
     inkscape:window-height="1032"
     inkscape:window-x="0"
     inkscape:window-y="42"
     inkscape:window-maximized="1"
     inkscape:current-layer="layer1" />
  <defs
     id="defs2">
    <rect
       x="480.62085"
       y="16.402517"
       width="293.34464"
       height="118.30945"
       id="rect1593" />
    <clipPath
       id="clipPath3847">
      <path
         clip-rule="nonzero"
         d="m 142,14 h 7 v 10.3125 h -7 z m 0,0"
         id="path6104" />
    </clipPath>
    <clipPath
       id="clipPath6081">
      <path
         clip-rule="nonzero"
         d="m 68,13 h 7 v 12.953125 h -7 z m 0,0"
         id="path3882" />
    </clipPath>
    <clipPath
       id="clipPath3941">
      <path
         clip-rule="nonzero"
         d="M 5,19 H 17 V 29.113281 H 5 Z m 0,0"
         id="path6236" />
    </clipPath>
  </defs>
  <g
     inkscape:label="Layer 1"
     inkscape:groupmode="layer"
     id="layer1">
    <rect
       style="fill:#0004ff;fill-opacity:0.350897;fill-rule:evenodd;stroke:#000000;stroke-width:0.453356;stroke-opacity:0"
       id="rect457"
       width="95.758339"
       height="49.995388"
       x="1.3636702"
       y="29.961559" />
    <rect
       style="fill:#00ff75;fill-opacity:0.350897;fill-rule:evenodd;stroke:#000000;stroke-width:0.361515;stroke-opacity:0"
       id="rect1481"
       width="68.182297"
       height="50.299992"
       x="118.44405"
       y="29.741718" />
    <text
       xml:space="preserve"
       style="font-style:normal;font-weight:normal;font-size:10.5833px;line-height:1.25;font-family:sans-serif;fill:#000000;fill-opacity:1;stroke:none;stroke-width:0.264583"
       x="6.3393984"
       y="42.162899"
       id="text1537"><tspan
         sodipodi:role="line"
         id="tspan1535"
         style="stroke-width:0.264583"
         x="6.3393984"
         y="42.162899">Neutronics</tspan><tspan
         sodipodi:role="line"
         style="stroke-width:0.264583"
         x="6.3393984"
         y="55.392025"
         id="tspan1539">solver</tspan></text>
    <text
       xml:space="preserve"
       transform="matrix(0.26458333,0,0,0.26458333,-5.3412709,26.689352)"
       id="text1591"
       style="font-style:normal;font-weight:normal;font-size:40px;line-height:1.25;font-family:sans-serif;white-space:pre;shape-inside:url(#rect1593);display:inline;fill:#000000;fill-opacity:1;stroke:none"><tspan
         x="480.62109"
         y="52.797351"
         id="tspan14351">Depletion
</tspan><tspan
         x="480.62109"
         y="102.79735"
         id="tspan14353">solver</tspan></text>
    <path
       style="fill:none;stroke:#000000;stroke-width:0.264583px;stroke-linecap:butt;stroke-linejoin:miter;stroke-opacity:1"
       d="m 33.114729,27.047837 c 1.182994,-0.947798 24.357999,-14.566948 46.70078,-13.214231 22.342781,1.352717 47.516001,-3.801851 60.089341,5.226971"
       id="path3255" />
    <path
       style="fill:none;stroke:#000000;stroke-width:0.264583px;stroke-linecap:butt;stroke-linejoin:miter;stroke-opacity:1"
       d="M 138.86001,24.295461 C 126.28665,15.266639 102.84459,21.381131 80.501805,20.028414 58.159024,18.675697 34.984016,32.294847 33.801021,33.242645 l -0.565529,-6.312082"
       id="path3255-3"
       sodipodi:nodetypes="cscc" />
    <path
       style="fill:none;stroke:#000000;stroke-width:0.264583px;stroke-linecap:butt;stroke-linejoin:miter;stroke-opacity:1"
       d="m 139.96089,19.070771 0.55453,-4.559072 11.12491,12.301529 -14.45891,4.49104 1.61793,-7.152933"
       id="path4101" />
    <path
       style="fill:#000000;fill-opacity:0.350897;fill-rule:evenodd;stroke:#000000;stroke-width:0.0810834;stroke-opacity:0"
       d="m 33.946126,32.889596 c -1.67e-4,-0.01624 -0.109458,-1.228693 -0.242869,-2.694315 -0.133409,-1.46562 -0.242562,-2.782308 -0.242562,-2.925977 0,-0.245552 0.04975,-0.290502 0.829799,-0.749715 2.133336,-1.255898 5.06812,-2.771244 7.75154,-4.002427 13.046176,-5.985737 25.826924,-8.972409 36.632615,-8.560503 1.113145,0.04243 2.242482,0.09728 2.509637,0.121877 0.267155,0.02461 2.05954,0.07768 3.98308,0.117957 3.727537,0.07805 9.282346,0.0094 15.932104,-0.196937 11.64737,-0.361387 16.44443,-0.343189 21.53431,0.08168 7.41336,0.618826 12.83202,2.180471 16.7264,4.820518 0.75432,0.511368 0.73707,0.540697 0.99559,-1.692392 0.12204,-1.054229 0.24849,-1.985846 0.28098,-2.070259 0.0484,-0.125613 1.02251,0.910503 5.36609,5.707402 2.91887,3.223484 5.30281,5.867193 5.29766,5.874914 -0.018,0.02697 -13.84415,4.311195 -13.8577,4.293994 -0.0497,-0.06314 1.48011,-6.543008 1.54443,-6.54182 0.0443,7.94e-4 0.0476,-0.125011 0.0779,-0.172151 -0.0156,-0.130321 0.021,-0.03128 -0.0996,-0.244047 -4.00573,-2.428959 -8.99431,-3.641442 -16.29135,-4.186986 -4.1839,-0.312798 -12.13315,-0.312367 -21.61527,0.0011 -6.770038,0.223859 -15.219961,0.258115 -18.741319,0.07597 -2.835357,-0.146655 -7.886631,-0.153619 -9.512337,-0.01312 -10.127578,0.875303 -20.553354,3.872018 -31.55678,9.070472 -2.348045,1.109308 -5.914945,3.010797 -7.119974,3.795602 -0.100182,0.06525 -0.182288,0.105333 -0.182454,0.08908 z"
       id="path4174"
       sodipodi:nodetypes="cssssssssssssssssccscscsscc" />
    <text
       xml:space="preserve"
       style="font-style:normal;font-weight:normal;font-size:10.5833px;line-height:1.25;font-family:sans-serif;fill:#000000;fill-opacity:1;stroke:none;stroke-width:0.264583"
       x="57.626953"
       y="9.5383234"
       id="text4182"><tspan
         sodipodi:role="line"
         id="tspan4180"
         style="stroke-width:0.264583"
         x="57.626953"
         y="9.5383234">Reaction rates</tspan></text>
    <path
       style="fill:none;stroke:#000000;stroke-width:0.264583px;stroke-linecap:butt;stroke-linejoin:miter;stroke-opacity:1"
       d="m 154.78501,82.192371 c -1.183,0.9478 -24.358,14.56695 -46.70078,13.21423 -22.342777,-1.35272 -47.515997,3.801848 -60.089337,-5.22697"
       id="path3255-7" />
    <path
       style="fill:none;stroke:#000000;stroke-width:0.264583px;stroke-linecap:butt;stroke-linejoin:miter;stroke-opacity:1"
       d="m 49.039733,84.944751 c 12.57336,9.02882 36.01542,2.91433 58.358197,4.26704 22.34278,1.35272 45.51779,-12.26643 46.70079,-13.21423 l 0.56552,6.31208"
       id="path3255-3-5"
       sodipodi:nodetypes="cscc" />
    <path
       style="fill:none;stroke:#000000;stroke-width:0.264583px;stroke-linecap:butt;stroke-linejoin:miter;stroke-opacity:1"
       d="m 47.938853,90.169441 -0.55453,4.55907 -11.12491,-12.30153 14.45891,-4.49104 -1.61793,7.15293"
       id="path4101-3" />
    <path
       style="fill:#000000;fill-opacity:0.350897;fill-rule:evenodd;stroke:#000000;stroke-width:0.0810834;stroke-opacity:0"
       d="m 153.95361,76.350611 c 1.7e-4,0.0163 0.10946,1.22869 0.24287,2.69432 0.13341,1.46562 0.24256,2.7823 0.24256,2.92597 0,0.24555 -0.0498,0.2905 -0.8298,0.74972 -2.13333,1.2559 -5.06812,2.77124 -7.75154,4.00242 -13.04617,5.98574 -25.82692,8.97241 -36.63261,8.56051 -1.11315,-0.0424 -2.24249,-0.0973 -2.50964,-0.12188 -0.26716,-0.0246 -2.05954,-0.0777 -3.98308,-0.11796 -3.727528,-0.0781 -9.282338,-0.009 -15.932097,0.19694 -11.64737,0.36139 -16.44443,0.34319 -21.53431,-0.0817 -7.41336,-0.61883 -12.83202,-2.18047 -16.7264,-4.82052 -0.75433,-0.51137 -0.73707,-0.5407 -0.99559,1.69239 -0.12204,1.05423 -0.24849,1.98585 -0.28098,2.07026 -0.0484,0.12561 -1.02251,-0.9105 -5.36609,-5.7074 -2.91887,-3.22349 -5.30281,-5.86719 -5.29766,-5.87491 0.018,-0.027 13.84415,-4.3112 13.8577,-4.294 0.0497,0.0631 -1.48011,6.54301 -1.54444,6.54182 -0.0443,-7.9e-4 -0.0476,0.12501 -0.0779,0.17215 0.0156,0.13032 -0.021,0.0313 0.0996,0.24405 4.00572,2.42896 8.99431,3.64144 16.29135,4.18699 4.1839,0.31279 12.13315,0.31236 21.61527,-0.001 6.770039,-0.22386 15.219947,-0.25812 18.741307,-0.076 2.83536,0.14666 7.88664,0.15362 9.51234,0.0131 10.12758,-0.87531 20.55336,-3.87202 31.55678,-9.07048 2.34805,-1.10931 5.91495,-3.01079 7.11998,-3.7956 0.10018,-0.0652 0.18228,-0.10533 0.18245,-0.0891 z"
       id="path4174-5"
       sodipodi:nodetypes="cssssssssssssssssccscscsscc" />
    <text
       xml:space="preserve"
       style="font-style:normal;font-weight:normal;font-size:10.5833px;line-height:1.25;font-family:sans-serif;fill:#000000;fill-opacity:1;stroke:none;stroke-width:0.264583"
       x="55.277214"
       y="106.90001"
       id="text4255"><tspan
         sodipodi:role="line"
         id="tspan4253"
         style="stroke-width:0.264583"
         x="55.277214"
         y="106.90001">Nuclide densities</tspan></text>
    <g
       inkscape:label=""
       transform="matrix(0.92508871,0,0,0.92508871,3.6059911,63.600031)"
       id="g8052">
      <g
         fill="#000000"
         fill-opacity="1"
         id="g65"
         transform="matrix(0.352778,0,0,0.352778,-0.341753,0.0588257)">
        <g
           id="use63"
           transform="translate(0,17.282)">
          <path
             d="m 7.59375,-12.703125 c 0.1875,-0.765625 0.28125,-0.8125 1.078125,-0.8125 h 1.484375 c 1.78125,0 3.109375,0.546875 3.109375,2.15625 0,1.046875 -0.546875,4.09375 -4.6875,4.09375 h -2.34375 z m 2.875,5.6875 c 2.5625,-0.5625 4.5625,-2.21875 4.5625,-4 0,-1.609375 -1.625,-3.09375 -4.5,-3.09375 H 4.9375 c -0.40625,0 -0.59375,0 -0.59375,0.390625 0,0.203125 0.140625,0.203125 0.53125,0.203125 1.234375,0 1.234375,0.171875 1.234375,0.40625 0,0.03125 0,0.15625 -0.078125,0.46875 L 3.25,-1.53125 c -0.1875,0.71875 -0.234375,0.9375 -1.65625,0.9375 -0.484375,0 -0.625,0 -0.625,0.390625 C 0.96875,0 1.203125,0 1.265625,0 1.625,0 2.0625,-0.046875 2.453125,-0.046875 h 2.4375 c 0.375,0 0.8125,0.046875 1.1875,0.046875 0.15625,0 0.390625,0 0.390625,-0.390625 0,-0.203125 -0.1875,-0.203125 -0.5,-0.203125 -1.265625,0 -1.265625,-0.171875 -1.265625,-0.375 0,-0.015625 0,-0.171875 0.046875,-0.328125 l 1.390625,-5.5625 h 2.46875 c 1.96875,0 2.34375,1.234375 2.34375,1.921875 0,0.3125 -0.21875,1.109375 -0.359375,1.65625 -0.21875,0.953125 -0.28125,1.171875 -0.28125,1.5625 0,1.46875 1.1875,2.15625 2.578125,2.15625 1.671875,0 2.390625,-2.046875 2.390625,-2.34375 0,-0.140625 -0.09375,-0.203125 -0.21875,-0.203125 -0.171875,0 -0.203125,0.125 -0.25,0.296875 -0.5,1.46875 -1.34375,1.828125 -1.859375,1.828125 -0.515625,0 -0.84375,-0.21875 -0.84375,-1.15625 0,-0.484375 0.25,-2.375 0.265625,-2.46875 0.09375,-0.765625 0.09375,-0.859375 0.09375,-1.015625 0,-1.515625 -1.21875,-2.15625 -2,-2.390625 z m 0,0"
             id="path159" />
        </g>
      </g>
      <g
         fill="#000000"
         fill-opacity="1"
         id="g69"
         transform="matrix(0.352778,0,0,0.352778,-0.341753,0.0588257)">
        <g
           id="use67"
           transform="translate(15.4,20.382)">
          <path
             d="M 4.0625,-2.046875 C 4.0625,-2.125 4,-2.1875 3.921875,-2.1875 c -0.140625,0 -0.15625,0.046875 -0.21875,0.296875 -0.375,1.296875 -0.96875,1.75 -1.4375,1.75 -0.171875,0 -0.375,-0.046875 -0.375,-0.46875 0,-0.390625 0.171875,-0.828125 0.328125,-1.25 L 3.234375,-4.53125 C 3.265625,-4.640625 3.375,-4.90625 3.375,-5.171875 c 0,-0.609375 -0.4375,-1.15625 -1.140625,-1.15625 -1.3125,0 -1.84375,2.078125 -1.84375,2.203125 0,0.046875 0.046875,0.125 0.15625,0.125 C 0.671875,-4 0.6875,-4.0625 0.75,-4.265625 1.09375,-5.46875 1.640625,-6.03125 2.1875,-6.03125 c 0.140625,0 0.375,0 0.375,0.46875 0,0.375 -0.1875,0.84375 -0.296875,1.15625 l -1,2.671875 C 1.171875,-1.5 1.09375,-1.28125 1.09375,-1.015625 c 0,0.640625 0.4375,1.15625 1.125,1.15625 1.328125,0 1.84375,-2.09375 1.84375,-2.1875 z m -0.125,-6.90625 c 0,-0.21875 -0.171875,-0.46875 -0.484375,-0.46875 -0.328125,0 -0.703125,0.3125 -0.703125,0.6875 0,0.359375 0.3125,0.46875 0.484375,0.46875 0.375,0 0.703125,-0.375 0.703125,-0.6875 z m 0,0"
             id="path163" />
        </g>
      </g>
      <g
         fill="#000000"
         fill-opacity="1"
         id="g73"
         transform="matrix(0.352778,0,0,0.352778,-0.341753,0.0588257)">
        <g
           id="use71"
           transform="translate(26.429001,17.282)">
          <path
             d="m 13.28125,-6.625 c 0.3125,0 0.625,0 0.625,-0.359375 0,-0.375 -0.359375,-0.375 -0.703125,-0.375 H 1.65625 c -0.359375,0 -0.703125,0 -0.703125,0.375 0,0.359375 0.3125,0.359375 0.609375,0.359375 z m -0.07813,3.671875 c 0.34375,0 0.703125,0 0.703125,-0.375 0,-0.34375 -0.3125,-0.34375 -0.625,-0.34375 H 1.5625 c -0.296875,0 -0.609375,0 -0.609375,0.34375 0,0.375 0.34375,0.375 0.703125,0.375 z m 0,0"
             id="path167" />
        </g>
      </g>
      <g
         fill="#000000"
         fill-opacity="1"
         id="g77"
         transform="matrix(0.352778,0,0,0.352778,-0.341753,0.0588257)">
        <g
           id="use75"
           transform="translate(47.042999,1.785)">
          <path
             d="m 8.703125,11.03125 -7.34375,9.0625 c -0.15625,0.21875 -0.1875,0.25 -0.1875,0.328125 0,0.234375 0.1875,0.234375 0.5625,0.234375 h 17.125 l 1.78125,-5.140625 H 20.125 c -0.515625,1.546875 -1.90625,2.8125 -3.65625,3.40625 -0.34375,0.109375 -1.765625,0.59375 -4.796875,0.59375 H 2.890625 L 10.0625,10.65625 c 0.140625,-0.1875 0.1875,-0.25 0.1875,-0.328125 0,-0.07813 -0.03125,-0.109375 -0.15625,-0.296875 L 3.390625,0.828125 H 11.5625 c 2.359375,0 7.109375,0.140625 8.5625,4 h 0.515625 L 18.859375,0 h -17.125 C 1.171875,0 1.15625,0.015625 1.15625,0.65625 Z m 0,0"
             id="path171" />
        </g>
      </g>
      <g
         clip-path="url(#clipPath6081)"
         id="g83"
         transform="matrix(0.352778,0,0,0.352778,-0.341753,0.0588257)">
        <g
           fill="#000000"
           fill-opacity="1"
           id="g81">
          <g
             id="use79"
             transform="translate(68.852997,23.165001)">
            <path
               d="m 5.015625,-4.546875 c 0.0625,-0.234375 0.0625,-0.4375 0.0625,-0.484375 0,-0.828125 -0.625,-1.296875 -1.265625,-1.296875 -1.453125,0 -2.21875,2.09375 -2.21875,2.203125 0,0.0625 0.0625,0.125 0.140625,0.125 0.109375,0 0.125,-0.0625 0.203125,-0.203125 0.578125,-1.390625 1.296875,-1.828125 1.828125,-1.828125 0.3125,0 0.46875,0.15625 0.46875,0.65625 0,0.34375 -0.046875,0.484375 -0.109375,0.734375 L 2.765625,0.78125 C 2.5,1.84375 1.828125,2.640625 1.03125,2.640625 c -0.0625,0 -0.359375,0 -0.625,-0.140625 C 0.75,2.421875 1.015625,2.15625 1.015625,1.8125 c 0,-0.234375 -0.171875,-0.46875 -0.484375,-0.46875 -0.375,0 -0.71875,0.3125 -0.71875,0.75 0,0.59375 0.625,0.828125 1.21875,0.828125 0.984375,0 2.296875,-0.734375 2.65625,-2.15625 z m 0.59375,-4.40625 c 0,-0.359375 -0.296875,-0.46875 -0.46875,-0.46875 -0.390625,0 -0.71875,0.375 -0.71875,0.6875 0,0.21875 0.171875,0.46875 0.484375,0.46875 0.328125,0 0.703125,-0.3125 0.703125,-0.6875 z m 0,0"
               id="path175" />
          </g>
        </g>
      </g>
      <g
         fill="#000000"
         fill-opacity="1"
         id="g7985"
         transform="matrix(0.352778,0,0,0.352778,-0.341753,0.0588257)">
        <g
           id="g7983"
           transform="translate(79.414001,17.282)">
          <path
             d="m 9.21875,-8.296875 c 0.40625,0 0.578125,0 0.578125,-0.40625 C 9.796875,-8.90625 9.625,-8.90625 9.25,-8.90625 H 7.578125 c 0.390625,-2.125 0.6875,-3.59375 0.84375,-4.25 0.125,-0.5 0.5625,-0.96875 1.09375,-0.96875 0.4375,0 0.875,0.1875 1.078125,0.375 -0.796875,0.07813 -1.046875,0.671875 -1.046875,1.03125 0,0.40625 0.3125,0.65625 0.703125,0.65625 0.40625,0 1.03125,-0.359375 1.03125,-1.140625 0,-0.859375 -0.875,-1.34375 -1.78125,-1.34375 -0.890625,0 -1.75,0.671875 -2.171875,1.46875 C 6.96875,-12.359375 6.75,-11.609375 6.28125,-8.90625 H 4.890625 c -0.390625,0 -0.59375,0 -0.59375,0.375 0,0.234375 0.125,0.234375 0.53125,0.234375 H 6.15625 C 5.78125,-6.375 4.9375,-1.71875 4.46875,0.5 4.109375,2.296875 3.796875,3.796875 2.765625,3.796875 c -0.0625,0 -0.65625,0 -1.03125,-0.390625 C 2.78125,3.328125 2.78125,2.421875 2.78125,2.390625 c 0,-0.40625 -0.296875,-0.65625 -0.6875,-0.65625 -0.421875,0 -1.046875,0.359375 -1.046875,1.140625 0,0.890625 0.921875,1.34375 1.71875,1.34375 C 4.875,4.21875 5.75,0.4375 5.96875,-0.59375 6.34375,-2.1875 7.359375,-7.6875 7.453125,-8.296875 Z m 0,0"
             id="path179" />
        </g>
      </g>
      <g
         fill="#000000"
         fill-opacity="1"
         id="g7990"
         transform="matrix(0.352778,0,0,0.352778,-0.341753,0.0588257)">
        <g
           id="g7988"
           transform="translate(89.386002,20.382)">
          <path
             d="m 5.015625,-4.546875 c 0.0625,-0.234375 0.0625,-0.4375 0.0625,-0.484375 0,-0.828125 -0.625,-1.296875 -1.265625,-1.296875 -1.453125,0 -2.21875,2.09375 -2.21875,2.203125 0,0.0625 0.0625,0.125 0.140625,0.125 0.109375,0 0.125,-0.0625 0.203125,-0.203125 0.578125,-1.390625 1.296875,-1.828125 1.828125,-1.828125 0.3125,0 0.46875,0.15625 0.46875,0.65625 0,0.34375 -0.046875,0.484375 -0.109375,0.734375 L 2.765625,0.78125 C 2.5,1.84375 1.828125,2.640625 1.03125,2.640625 c -0.0625,0 -0.359375,0 -0.625,-0.140625 C 0.75,2.421875 1.015625,2.15625 1.015625,1.8125 c 0,-0.234375 -0.171875,-0.46875 -0.484375,-0.46875 -0.375,0 -0.71875,0.3125 -0.71875,0.75 0,0.59375 0.625,0.828125 1.21875,0.828125 0.984375,0 2.296875,-0.734375 2.65625,-2.15625 z m 0.59375,-4.40625 c 0,-0.359375 -0.296875,-0.46875 -0.46875,-0.46875 -0.390625,0 -0.71875,0.375 -0.71875,0.6875 0,0.21875 0.171875,0.46875 0.484375,0.46875 0.328125,0 0.703125,-0.3125 0.703125,-0.6875 z m 0,0"
             id="path183" />
        </g>
      </g>
      <g
         fill="#000000"
         fill-opacity="1"
         id="g7995"
         transform="matrix(0.352778,0,0,0.352778,-0.341753,0.0588257)">
        <g
           id="g7993"
           transform="translate(96.004997,20.382)">
          <path
             d="m 11.96875,-3.296875 c -0.796875,0.59375 -1.1875,1.1875 -1.296875,1.375 -0.640625,0.984375 -0.765625,1.890625 -0.765625,1.90625 0,0.171875 0.171875,0.171875 0.296875,0.171875 0.234375,0 0.25,-0.03125 0.3125,-0.28125 0.328125,-1.40625 1.171875,-2.609375 2.796875,-3.28125 0.171875,-0.046875 0.21875,-0.078125 0.21875,-0.171875 0,-0.109375 -0.09375,-0.15625 -0.125,-0.171875 -0.625,-0.234375 -2.359375,-0.953125 -2.90625,-3.359375 -0.04687,-0.171875 -0.0625,-0.21875 -0.296875,-0.21875 -0.125,0 -0.296875,0 -0.296875,0.171875 0,0.03125 0.140625,0.9375 0.734375,1.890625 0.296875,0.4375 0.703125,0.9375 1.328125,1.390625 H 1.3125 c -0.265625,0 -0.53125,0 -0.53125,0.296875 0,0.28125 0.265625,0.28125 0.53125,0.28125 z m 0,0"
             id="path187" />
        </g>
      </g>
      <g
         fill="#000000"
         fill-opacity="1"
         id="g8000"
         transform="matrix(0.352778,0,0,0.352778,-0.341753,0.0588257)">
        <g
           id="g7998"
           transform="translate(110.351,20.382)">
          <path
             d="M 4.0625,-2.046875 C 4.0625,-2.125 4,-2.1875 3.921875,-2.1875 c -0.140625,0 -0.15625,0.046875 -0.21875,0.296875 -0.375,1.296875 -0.96875,1.75 -1.4375,1.75 -0.171875,0 -0.375,-0.046875 -0.375,-0.46875 0,-0.390625 0.171875,-0.828125 0.328125,-1.25 L 3.234375,-4.53125 C 3.265625,-4.640625 3.375,-4.90625 3.375,-5.171875 c 0,-0.609375 -0.4375,-1.15625 -1.140625,-1.15625 -1.3125,0 -1.84375,2.078125 -1.84375,2.203125 0,0.046875 0.046875,0.125 0.15625,0.125 C 0.671875,-4 0.6875,-4.0625 0.75,-4.265625 1.09375,-5.46875 1.640625,-6.03125 2.1875,-6.03125 c 0.140625,0 0.375,0 0.375,0.46875 0,0.375 -0.1875,0.84375 -0.296875,1.15625 l -1,2.671875 C 1.171875,-1.5 1.09375,-1.28125 1.09375,-1.015625 c 0,0.640625 0.4375,1.15625 1.125,1.15625 1.328125,0 1.84375,-2.09375 1.84375,-2.1875 z m -0.125,-6.90625 c 0,-0.21875 -0.171875,-0.46875 -0.484375,-0.46875 -0.328125,0 -0.703125,0.3125 -0.703125,0.6875 0,0.359375 0.3125,0.46875 0.484375,0.46875 0.375,0 0.703125,-0.375 0.703125,-0.6875 z m 0,0"
             id="path191" />
        </g>
      </g>
      <g
         fill="#000000"
         fill-opacity="1"
         id="g8005"
         transform="matrix(0.352778,0,0,0.352778,-0.341753,0.0588257)">
        <g
           id="g8003"
           transform="translate(119.085,0.63700002)">
          <path
             d="M 5.625,18.171875 C 5.34375,21.5625 4.609375,22.5 3.421875,22.5 3.15625,22.5 2.546875,22.4375 2.109375,22.0625 2.703125,21.984375 2.875,21.5 2.875,21.21875 c 0,-0.609375 -0.453125,-0.875 -0.84375,-0.875 -0.421875,0 -0.875,0.265625 -0.875,0.890625 0,0.984375 1.03125,1.71875 2.265625,1.71875 1.96875,0 2.953125,-1.796875 3.421875,-3.65625 0.265625,-1.078125 1,-7.09375 1.171875,-9.375 L 8.40625,4.765625 c 0.296875,-3.796875 1,-4.3125 1.921875,-4.3125 0.203125,0 0.84375,0.046875 1.296875,0.4375 -0.59375,0.078125 -0.765625,0.5625 -0.765625,0.84375 0,0.59375 0.453125,0.875 0.859375,0.875 0.40625,0 0.859375,-0.28125 0.859375,-0.890625 0,-1 -1.03125,-1.71875 -2.265625,-1.71875 -1.96875,0 -2.765625,2 -3.125,3.578125 -0.25,1.125 -0.984375,6.953125 -1.171875,9.453125 z m 0,0"
             id="path195" />
        </g>
      </g>
      <g
         fill="#000000"
         fill-opacity="1"
         id="g8010"
         transform="matrix(0.352778,0,0,0.352778,-0.341753,0.0588257)">
        <g
           id="g8008"
           transform="translate(132.86,6.177)">
          <path
             d="M 7.28125,-3.890625 C 6.515625,-4.859375 6.34375,-5.078125 5.890625,-5.4375 5.09375,-6.078125 4.28125,-6.34375 3.5625,-6.34375 c -1.6875,0 -2.78125,1.578125 -2.78125,3.265625 0,1.640625 1.0625,3.234375 2.71875,3.234375 1.65625,0 2.84375,-1.296875 3.546875,-2.453125 0.765625,0.984375 0.9375,1.1875 1.390625,1.546875 0.796875,0.65625 1.609375,0.90625 2.328125,0.90625 1.6875,0 2.78125,-1.578125 2.78125,-3.25 0,-1.65625 -1.0625,-3.25 -2.71875,-3.25 -1.640625,0 -2.84375,1.3125 -3.546875,2.453125 z m 0.375,0.484375 C 8.25,-4.4375 9.3125,-5.875 10.9375,-5.875 c 1.515625,0 2.28125,1.484375 2.28125,2.78125 0,1.40625 -0.953125,2.5625 -2.21875,2.5625 -0.828125,0 -1.46875,-0.609375 -1.78125,-0.90625 -0.359375,-0.390625 -0.6875,-0.828125 -1.5625,-1.96875 z m -0.984375,0.625 c -0.59375,1.03125 -1.65625,2.484375 -3.265625,2.484375 -1.53125,0 -2.296875,-1.5 -2.296875,-2.78125 0,-1.40625 0.953125,-2.578125 2.21875,-2.578125 0.828125,0 1.484375,0.609375 1.78125,0.90625 0.359375,0.390625 0.6875,0.828125 1.5625,1.96875 z m 0,0"
             id="path199" />
        </g>
      </g>
      <g
         fill="#000000"
         fill-opacity="1"
         id="g8015"
         transform="matrix(0.352778,0,0,0.352778,-0.341753,0.0588257)">
        <g
           id="g8013"
           transform="translate(128.842,24.313)">
          <path
             d="m 6.421875,-4.59375 c 0,-1.1875 -0.0625,-2.34375 -0.578125,-3.4375 -0.59375,-1.1875 -1.625,-1.5 -2.328125,-1.5 -0.828125,0 -1.859375,0.40625 -2.375,1.59375 -0.40625,0.90625 -0.546875,1.796875 -0.546875,3.34375 0,1.390625 0.09375,2.4375 0.609375,3.453125 0.5625,1.09375 1.546875,1.4375 2.296875,1.4375 1.25,0 1.96875,-0.734375 2.375,-1.578125 0.515625,-1.078125 0.546875,-2.484375 0.546875,-3.3125 z M 3.5,0.015625 C 3.046875,0.015625 2.109375,-0.25 1.84375,-1.8125 1.671875,-2.671875 1.671875,-3.765625 1.671875,-4.765625 1.671875,-5.9375 1.671875,-7 1.90625,-7.84375 2.15625,-8.8125 2.890625,-9.25 3.5,-9.25 c 0.546875,0 1.375,0.328125 1.65625,1.5625 0.171875,0.8125 0.171875,1.953125 0.171875,2.921875 0,0.96875 0,2.046875 -0.15625,2.921875 C 4.90625,-0.265625 4,0.015625 3.5,0.015625 Z m 0,0"
             id="path203" />
        </g>
      </g>
      <g
         fill="#000000"
         fill-opacity="1"
         id="g117"
         transform="matrix(0.352778,0,0,0.352778,-0.341753,0.0588257)">
        <g
           id="g8018"
           transform="translate(151.14799,17.282)">
          <path
             d="m 10.390625,-13.8125 c 0.01563,-0.09375 0.0625,-0.21875 0.0625,-0.3125 0,-0.203125 -0.203125,-0.203125 -0.25,-0.203125 -0.01563,0 -1.03125,0.07813 -1.140625,0.09375 -0.34375,0.01563 -0.65625,0.0625 -1.03125,0.07813 -0.515625,0.04687 -0.65625,0.0625 -0.65625,0.4375 0,0.203125 0.171875,0.203125 0.453125,0.203125 1.015625,0 1.03125,0.1875 1.03125,0.40625 0,0.109375 -0.046875,0.28125 -0.0625,0.34375 l -1.25,5.01562 C 7.3125,-8.28125 6.75,-9.109375 5.6875,-9.109375 c -2.34375,0 -4.859375,3.015625 -4.859375,6.078125 0,2.046875 1.203125,3.234375 2.59375,3.234375 1.140625,0 2.109375,-0.890625 2.6875,-1.5625 0.21875,1.21875 1.1875,1.5625 1.796875,1.5625 0.625,0 1.125,-0.375 1.5,-1.109375 0.328125,-0.703125 0.609375,-1.96875 0.609375,-2.046875 0,-0.109375 -0.078125,-0.1875 -0.203125,-0.1875 -0.1875,0 -0.203125,0.109375 -0.296875,0.40625 -0.296875,1.21875 -0.703125,2.53125 -1.546875,2.53125 -0.59375,0 -0.640625,-0.546875 -0.640625,-0.953125 0,-0.078125 0,-0.515625 0.15625,-1.09375 z M 6.21875,-2.453125 c -0.109375,0.34375 -0.109375,0.390625 -0.390625,0.78125 -0.453125,0.578125 -1.359375,1.46875 -2.34375,1.46875 -0.84375,0 -1.3125,-0.765625 -1.3125,-1.984375 0,-1.140625 0.640625,-3.453125 1.03125,-4.3125 C 3.90625,-7.953125 4.875,-8.703125 5.6875,-8.703125 c 1.359375,0 1.625,1.703125 1.625,1.859375 0,0.03125 -0.0625,0.296875 -0.078125,0.34375 z m 0,0"
             id="path207" />
        </g>
        <g
           id="use115"
           transform="translate(161.66109,17.282)">
          <path
             d="M 14.359375,-4.796875 C 14.375,-4.859375 14.4375,-5 14.4375,-5.078125 c 0,-0.109375 -0.07813,-0.203125 -0.203125,-0.203125 -0.07813,0 -0.125,0.015625 -0.1875,0.078125 C 14,-5.1875 14,-5.140625 13.8125,-4.734375 12.59375,-1.84375 11.71875,-0.59375 8.40625,-0.59375 H 5.390625 c -0.28125,0 -0.328125,0 -0.453125,-0.03125 -0.234375,-0.015625 -0.25,-0.0625 -0.25,-0.21875 0,-0.140625 0.046875,-0.265625 0.078125,-0.453125 L 6.203125,-7 h 2.03125 c 1.625,0 1.75,0.34375 1.75,0.96875 0,0.203125 0,0.390625 -0.15625,1.015625 -0.03125,0.078125 -0.0625,0.15625 -0.0625,0.21875 0,0.15625 0.109375,0.21875 0.234375,0.21875 0.1875,0 0.203125,-0.15625 0.28125,-0.4375 l 1.1875,-4.796875 c 0,-0.109375 -0.09375,-0.203125 -0.21875,-0.203125 -0.171875,0 -0.203125,0.078125 -0.28125,0.375 C 10.5625,-8.0625 10.140625,-7.59375 8.296875,-7.59375 H 6.34375 L 7.625,-12.6875 c 0.1875,-0.71875 0.21875,-0.78125 1.078125,-0.78125 h 2.953125 c 2.53125,0 3.046875,0.6875 3.046875,2.25 0,0.01563 0,0.59375 -0.07813,1.28125 -0.01563,0.078125 -0.04687,0.203125 -0.04687,0.25 0,0.171875 0.109375,0.234375 0.234375,0.234375 0.140625,0 0.21875,-0.09375 0.265625,-0.46875 l 0.4375,-3.609375 c 0,-0.0625 0.03125,-0.265625 0.03125,-0.3125 C 15.546875,-14.0625 15.375,-14.0625 15,-14.0625 H 4.921875 c -0.390625,0 -0.609375,0 -0.609375,0.375 0,0.21875 0.15625,0.21875 0.5,0.21875 1.28125,0 1.28125,0.140625 1.28125,0.375 0,0.09375 -0.015625,0.1875 -0.078125,0.40625 L 3.21875,-1.53125 C 3.03125,-0.8125 3,-0.59375 1.546875,-0.59375 c -0.390625,0 -0.59375,0 -0.59375,0.359375 C 0.953125,0 1.078125,0 1.484375,0 h 10.375 c 0.453125,0 0.46875,-0.015625 0.609375,-0.34375 z m 0,0"
             id="path211" />
        </g>
      </g>
      <g
         fill="#000000"
         fill-opacity="1"
         id="g8025"
         transform="matrix(0.352778,0,0,0.352778,-0.341753,0.0588257)">
        <g
           id="use119"
           transform="translate(177.85635,17.282)">
          <path
             d="m 10.5,-7.78125 c 0.265625,0 0.9375,0 0.9375,-0.671875 0,-0.453125 -0.390625,-0.453125 -0.765625,-0.453125 h -4.5625 c -3.09375,0 -5.328125,3.453125 -5.328125,5.890625 0,1.75 1.140625,3.21875 3,3.21875 2.4375,0 5.09375,-2.625 5.09375,-5.71875 0,-0.8125 -0.171875,-1.59375 -0.671875,-2.265625 z m -6.703125,7.578125 c -1.046875,0 -1.8125,-0.8125 -1.8125,-2.234375 0,-1.234375 0.75,-5.34375 3.78125,-5.34375 0.890625,0 1.875,0.421875 1.875,2.015625 0,0.71875 -0.328125,2.453125 -1.046875,3.65625 -0.75,1.21875 -1.859375,1.90625 -2.796875,1.90625 z m 0,0"
             id="path215" />
        </g>
      </g>
      <g
         fill="#000000"
         fill-opacity="1"
         id="g125"
         transform="matrix(0.352778,0,0,0.352778,-0.341753,0.0588257)">
        <g
           id="g8028"
           transform="translate(189.34801,20.382)">
          <path
             d="m 5.015625,-4.546875 c 0.0625,-0.234375 0.0625,-0.4375 0.0625,-0.484375 0,-0.828125 -0.625,-1.296875 -1.265625,-1.296875 -1.453125,0 -2.21875,2.09375 -2.21875,2.203125 0,0.0625 0.0625,0.125 0.140625,0.125 0.109375,0 0.125,-0.0625 0.203125,-0.203125 0.578125,-1.390625 1.296875,-1.828125 1.828125,-1.828125 0.3125,0 0.46875,0.15625 0.46875,0.65625 0,0.34375 -0.046875,0.484375 -0.109375,0.734375 L 2.765625,0.78125 C 2.5,1.84375 1.828125,2.640625 1.03125,2.640625 c -0.0625,0 -0.359375,0 -0.625,-0.140625 C 0.75,2.421875 1.015625,2.15625 1.015625,1.8125 c 0,-0.234375 -0.171875,-0.46875 -0.484375,-0.46875 -0.375,0 -0.71875,0.3125 -0.71875,0.75 0,0.59375 0.625,0.828125 1.21875,0.828125 0.984375,0 2.296875,-0.734375 2.65625,-2.15625 z m 0.59375,-4.40625 c 0,-0.359375 -0.296875,-0.46875 -0.46875,-0.46875 -0.390625,0 -0.71875,0.375 -0.71875,0.6875 0,0.21875 0.171875,0.46875 0.484375,0.46875 0.328125,0 0.703125,-0.3125 0.703125,-0.6875 z m 0,0"
             id="path219" />
        </g>
      </g>
      <g
         fill="#000000"
         fill-opacity="1"
         id="g129"
         transform="matrix(0.352778,0,0,0.352778,-0.341753,0.0588257)">
        <g
           id="use127"
           transform="translate(196.465,17.282)">
          <path
             d="m 6.328125,5.046875 c 0,-0.03125 0,-0.0625 -0.0625,-0.125 -0.953125,-0.96875 -3.5,-3.625 -3.5,-10.0625 0,-6.453125 2.5,-9.078125 3.515625,-10.109375 0,-0.01563 0.046875,-0.0625 0.046875,-0.125 0,-0.0625 -0.0625,-0.09375 -0.15625,-0.09375 -0.21875,0 -1.984375,1.53125 -2.984375,3.796875 -1.046875,2.296875 -1.328125,4.53125 -1.328125,6.5 0,1.5 0.140625,4.015625 1.390625,6.6875 0.984375,2.140625 2.671875,3.65625 2.921875,3.65625 0.109375,0 0.15625,-0.046875 0.15625,-0.125 z m 0,0"
             id="path223" />
        </g>
      </g>
      <g
         fill="#000000"
         fill-opacity="1"
         id="g133"
         transform="matrix(0.352778,0,0,0.352778,-0.341753,0.0588257)">
        <g
           id="use131"
           transform="translate(203.782,17.282)">
          <path
             d="M 14.359375,-4.796875 C 14.375,-4.859375 14.4375,-5 14.4375,-5.078125 c 0,-0.109375 -0.07813,-0.203125 -0.203125,-0.203125 -0.07813,0 -0.125,0.015625 -0.1875,0.078125 C 14,-5.1875 14,-5.140625 13.8125,-4.734375 12.59375,-1.84375 11.71875,-0.59375 8.40625,-0.59375 H 5.390625 c -0.28125,0 -0.328125,0 -0.453125,-0.03125 -0.234375,-0.015625 -0.25,-0.0625 -0.25,-0.21875 0,-0.140625 0.046875,-0.265625 0.078125,-0.453125 L 6.203125,-7 h 2.03125 c 1.625,0 1.75,0.34375 1.75,0.96875 0,0.203125 0,0.390625 -0.15625,1.015625 -0.03125,0.078125 -0.0625,0.15625 -0.0625,0.21875 0,0.15625 0.109375,0.21875 0.234375,0.21875 0.1875,0 0.203125,-0.15625 0.28125,-0.4375 l 1.1875,-4.796875 c 0,-0.109375 -0.09375,-0.203125 -0.21875,-0.203125 -0.171875,0 -0.203125,0.078125 -0.28125,0.375 C 10.5625,-8.0625 10.140625,-7.59375 8.296875,-7.59375 H 6.34375 L 7.625,-12.6875 c 0.1875,-0.71875 0.21875,-0.78125 1.078125,-0.78125 h 2.953125 c 2.53125,0 3.046875,0.6875 3.046875,2.25 0,0.01563 0,0.59375 -0.07813,1.28125 -0.01563,0.078125 -0.04687,0.203125 -0.04687,0.25 0,0.171875 0.109375,0.234375 0.234375,0.234375 0.140625,0 0.21875,-0.09375 0.265625,-0.46875 l 0.4375,-3.609375 c 0,-0.0625 0.03125,-0.265625 0.03125,-0.3125 C 15.546875,-14.0625 15.375,-14.0625 15,-14.0625 H 4.921875 c -0.390625,0 -0.609375,0 -0.609375,0.375 0,0.21875 0.15625,0.21875 0.5,0.21875 1.28125,0 1.28125,0.140625 1.28125,0.375 0,0.09375 -0.015625,0.1875 -0.078125,0.40625 L 3.21875,-1.53125 C 3.03125,-0.8125 3,-0.59375 1.546875,-0.59375 c -0.390625,0 -0.59375,0 -0.59375,0.359375 C 0.953125,0 1.078125,0 1.484375,0 h 10.375 c 0.453125,0 0.46875,-0.015625 0.609375,-0.34375 z m 0,0"
             id="path227" />
        </g>
      </g>
      <g
         fill="#000000"
         fill-opacity="1"
         id="g137"
         transform="matrix(0.352778,0,0,0.352778,-0.341753,0.0588257)">
        <g
           id="use135"
           transform="translate(219.97,17.282)">
          <path
             d="m 5.4375,-5.140625 c 0,-1.484375 -0.15625,-4.015625 -1.390625,-6.671875 -0.984375,-2.15625 -2.6875,-3.65625 -2.9375,-3.65625 -0.0625,0 -0.140625,0.01563 -0.140625,0.125 0,0.03125 0.015625,0.0625 0.046875,0.09375 C 2,-14.21875 4.53125,-11.59375 4.53125,-5.171875 4.53125,1.28125 2.03125,3.90625 1.015625,4.9375 0.984375,4.984375 0.96875,5 0.96875,5.046875 c 0,0.09375 0.078125,0.125 0.140625,0.125 0.234375,0 1.984375,-1.53125 3,-3.8125 1.03125,-2.28125 1.328125,-4.515625 1.328125,-6.5 z m 0,0"
             id="path231" />
        </g>
      </g>
      <g
         fill="#000000"
         fill-opacity="1"
         id="g141"
         transform="matrix(0.352778,0,0,0.352778,-0.341753,0.0588257)">
        <g
           id="use139"
           transform="translate(227.287,17.282)">
          <path
             d="m 8.875,-14.15625 c 0,-0.171875 -0.140625,-0.171875 -0.203125,-0.171875 -0.1875,0 -0.203125,0.03125 -0.28125,0.390625 L 7.265625,-9.5 C 7.203125,-9.234375 7.1875,-9.21875 7.171875,-9.1875 7.140625,-9.15625 7,-9.125 6.96875,-9.125 c -3.390625,0.28125 -6,3.078125 -6,5.65625 0,2.234375 1.71875,3.59375 3.859375,3.71875 C 4.671875,0.890625 4.53125,1.546875 4.359375,2.1875 4.0625,3.28125 3.90625,3.96875 3.90625,4.046875 c 0,0.046875 0,0.171875 0.203125,0.171875 0.0625,0 0.140625,0 0.1875,-0.09375 0.046875,-0.03125 0.171875,-0.53125 0.25,-0.796875 L 5.3125,0.25 c 3.53125,-0.1875 6.21875,-3.078125 6.21875,-5.6875 0,-2.078125 -1.578125,-3.5625 -3.875,-3.71875 z m -1.328125,5.421875 c 1.359375,0.078125 2.71875,0.84375 2.71875,2.875 0,2.328125 -1.625,5.421875 -4.859375,5.671875 z m -2.609375,8.5625 c -1.015625,-0.0625 -2.703125,-0.59375 -2.703125,-2.859375 0,-2.609375 1.875,-5.5 4.84375,-5.6875 z m 0,0"
             id="path235" />
        </g>
      </g>
      <g
         fill="#000000"
         fill-opacity="1"
         id="g145"
         transform="matrix(0.352778,0,0,0.352778,-0.341753,0.0588257)">
        <g
           id="use143"
           transform="translate(239.261,17.282)">
          <path
             d="m 6.328125,5.046875 c 0,-0.03125 0,-0.0625 -0.0625,-0.125 -0.953125,-0.96875 -3.5,-3.625 -3.5,-10.0625 0,-6.453125 2.5,-9.078125 3.515625,-10.109375 0,-0.01563 0.046875,-0.0625 0.046875,-0.125 0,-0.0625 -0.0625,-0.09375 -0.15625,-0.09375 -0.21875,0 -1.984375,1.53125 -2.984375,3.796875 -1.046875,2.296875 -1.328125,4.53125 -1.328125,6.5 0,1.5 0.140625,4.015625 1.390625,6.6875 0.984375,2.140625 2.671875,3.65625 2.921875,3.65625 0.109375,0 0.15625,-0.046875 0.15625,-0.125 z m 0,0"
             id="path239" />
        </g>
      </g>
      <g
         fill="#000000"
         fill-opacity="1"
         id="g149"
         transform="matrix(0.352778,0,0,0.352778,-0.341753,0.0588257)">
        <g
           id="use147"
           transform="translate(246.57899,17.282)">
          <path
             d="M 14.359375,-4.796875 C 14.375,-4.859375 14.4375,-5 14.4375,-5.078125 c 0,-0.109375 -0.07813,-0.203125 -0.203125,-0.203125 -0.07813,0 -0.125,0.015625 -0.1875,0.078125 C 14,-5.1875 14,-5.140625 13.8125,-4.734375 12.59375,-1.84375 11.71875,-0.59375 8.40625,-0.59375 H 5.390625 c -0.28125,0 -0.328125,0 -0.453125,-0.03125 -0.234375,-0.015625 -0.25,-0.0625 -0.25,-0.21875 0,-0.140625 0.046875,-0.265625 0.078125,-0.453125 L 6.203125,-7 h 2.03125 c 1.625,0 1.75,0.34375 1.75,0.96875 0,0.203125 0,0.390625 -0.15625,1.015625 -0.03125,0.078125 -0.0625,0.15625 -0.0625,0.21875 0,0.15625 0.109375,0.21875 0.234375,0.21875 0.1875,0 0.203125,-0.15625 0.28125,-0.4375 l 1.1875,-4.796875 c 0,-0.109375 -0.09375,-0.203125 -0.21875,-0.203125 -0.171875,0 -0.203125,0.078125 -0.28125,0.375 C 10.5625,-8.0625 10.140625,-7.59375 8.296875,-7.59375 H 6.34375 L 7.625,-12.6875 c 0.1875,-0.71875 0.21875,-0.78125 1.078125,-0.78125 h 2.953125 c 2.53125,0 3.046875,0.6875 3.046875,2.25 0,0.01563 0,0.59375 -0.07813,1.28125 -0.01563,0.078125 -0.04687,0.203125 -0.04687,0.25 0,0.171875 0.109375,0.234375 0.234375,0.234375 0.140625,0 0.21875,-0.09375 0.265625,-0.46875 l 0.4375,-3.609375 c 0,-0.0625 0.03125,-0.265625 0.03125,-0.3125 C 15.546875,-14.0625 15.375,-14.0625 15,-14.0625 H 4.921875 c -0.390625,0 -0.609375,0 -0.609375,0.375 0,0.21875 0.15625,0.21875 0.5,0.21875 1.28125,0 1.28125,0.140625 1.28125,0.375 0,0.09375 -0.015625,0.1875 -0.078125,0.40625 L 3.21875,-1.53125 C 3.03125,-0.8125 3,-0.59375 1.546875,-0.59375 c -0.390625,0 -0.59375,0 -0.59375,0.359375 C 0.953125,0 1.078125,0 1.484375,0 h 10.375 c 0.453125,0 0.46875,-0.015625 0.609375,-0.34375 z m 0,0"
             id="path243" />
        </g>
      </g>
      <g
         fill="#000000"
         fill-opacity="1"
         id="g153"
         transform="matrix(0.352778,0,0,0.352778,-0.341753,0.0588257)">
        <g
           id="use151"
           transform="translate(262.76599,17.282)">
          <path
             d="m 5.4375,-5.140625 c 0,-1.484375 -0.15625,-4.015625 -1.390625,-6.671875 -0.984375,-2.15625 -2.6875,-3.65625 -2.9375,-3.65625 -0.0625,0 -0.140625,0.01563 -0.140625,0.125 0,0.03125 0.015625,0.0625 0.046875,0.09375 C 2,-14.21875 4.53125,-11.59375 4.53125,-5.171875 4.53125,1.28125 2.03125,3.90625 1.015625,4.9375 0.984375,4.984375 0.96875,5 0.96875,5.046875 c 0,0.09375 0.078125,0.125 0.140625,0.125 0.234375,0 1.984375,-1.53125 3,-3.8125 1.03125,-2.28125 1.328125,-4.515625 1.328125,-6.5 z m 0,0"
             id="path247" />
        </g>
      </g>
    </g>
    <g
       inkscape:label=""
       transform="matrix(1.5482456,0,0,1.5482456,127.03376,58.702341)"
       id="g10538">
      <g
         fill="#000000"
         fill-opacity="1"
         id="g38"
         transform="matrix(0.352778,0,0,0.352778,-0.42168,0.00295457)">
        <g
           id="use36"
           transform="translate(1.196,13.852)">
          <path
             d="m 7.21875,-9.59375 c 0.015625,-0.0625 0.046875,-0.140625 0.046875,-0.21875 0,-0.140625 -0.15625,-0.140625 -0.1875,-0.140625 0,0 -0.703125,0.0625 -0.78125,0.0625 -0.25,0.015625 -0.453125,0.046875 -0.71875,0.0625 C 5.21875,-9.796875 5.125,-9.78125 5.125,-9.53125 c 0,0.15625 0.109375,0.15625 0.3125,0.15625 0.703125,0 0.71875,0.125 0.71875,0.265625 0,0.09375 -0.03125,0.203125 -0.046875,0.25 L 5.234375,-5.375 C 5.078125,-5.75 4.6875,-6.328125 3.9375,-6.328125 c -1.609375,0 -3.359375,2.09375 -3.359375,4.21875 0,1.421875 0.828125,2.25 1.796875,2.25 0.796875,0 1.46875,-0.609375 1.875,-1.09375 0.140625,0.859375 0.8125,1.09375 1.25,1.09375 0.421875,0 0.765625,-0.25 1.03125,-0.765625 C 6.75,-1.125 6.953125,-2 6.953125,-2.046875 6.953125,-2.125 6.90625,-2.1875 6.8125,-2.1875 c -0.125,0 -0.140625,0.078125 -0.203125,0.296875 -0.21875,0.84375 -0.484375,1.75 -1.078125,1.75 -0.40625,0 -0.4375,-0.375 -0.4375,-0.65625 0,-0.0625 0,-0.359375 0.09375,-0.765625 z M 4.3125,-1.703125 C 4.25,-1.46875 4.25,-1.4375 4.046875,-1.15625 c -0.3125,0.390625 -0.953125,1.015625 -1.625,1.015625 -0.578125,0 -0.921875,-0.53125 -0.921875,-1.375 0,-0.796875 0.453125,-2.40625 0.71875,-3 0.5,-1 1.171875,-1.515625 1.71875,-1.515625 0.953125,0 1.140625,1.171875 1.140625,1.28125 0,0.015625 -0.046875,0.203125 -0.0625,0.234375 z m 0,0"
             id="path78" />
        </g>
      </g>
      <g
         fill="#000000"
         fill-opacity="1"
         id="g42"
         transform="matrix(0.352778,0,0,0.352778,-0.42168,0.00295457)">
        <g
           id="use40"
           transform="translate(11.424,10.226)">
          <path
             d="M 7.671875,-8.5625 C 7.5,-8.40625 6.96875,-7.90625 6.96875,-7.703125 c 0,0.140625 0.125,0.265625 0.28125,0.265625 0.125,0 0.1875,-0.078125 0.28125,-0.21875 0.34375,-0.4375 0.734375,-0.703125 1.0625,-0.890625 0.140625,-0.09375 0.234375,-0.125 0.234375,-0.28125 0,-0.140625 -0.109375,-0.203125 -0.1875,-0.28125 C 8.234375,-9.375 8.140625,-9.765625 8.09375,-9.9375 8.046875,-10.0625 8,-10.234375 7.796875,-10.234375 c -0.078125,0 -0.25,0.0625 -0.25,0.28125 0,0.125 0.078125,0.46875 0.359375,0.859375 H 3.078125 c -0.234375,0 -0.484375,0 -0.484375,0.265625 0,0.265625 0.265625,0.265625 0.484375,0.265625 z m 0,0"
             id="path82" />
        </g>
      </g>
      <g
         fill="#000000"
         fill-opacity="1"
         id="g46"
         transform="matrix(0.352778,0,0,0.352778,-0.42168,0.00295457)">
        <g
           id="use44"
           transform="translate(8.4949999,13.852)">
          <path
             d="M 10.609375,-8.296875 C 10.765625,-8.90625 11,-9.34375 12.09375,-9.375 c 0.04687,0 0.21875,-0.015625 0.21875,-0.265625 0,-0.15625 -0.140625,-0.15625 -0.1875,-0.15625 -0.296875,0 -1.015625,0.03125 -1.3125,0.03125 H 10.125 c -0.203125,0 -0.453125,-0.03125 -0.65625,-0.03125 -0.09375,0 -0.265625,0 -0.265625,0.265625 0,0.15625 0.125,0.15625 0.21875,0.15625 0.859375,0.015625 0.921875,0.359375 0.921875,0.609375 0,0.125 -0.01563,0.171875 -0.0625,0.375 l -1.625,6.46875 -3.0625,-7.625 c -0.09375,-0.234375 -0.109375,-0.25 -0.4375,-0.25 h -1.75 C 3.125,-9.796875 3,-9.796875 3,-9.53125 3,-9.375 3.09375,-9.375 3.375,-9.375 c 0.0625,0 0.90625,0 0.90625,0.125 0,0.03125 -0.015625,0.140625 -0.03125,0.1875 l -1.90625,7.59375 c -0.171875,0.703125 -0.515625,1.015625 -1.46875,1.046875 -0.078125,0 -0.21875,0.015625 -0.21875,0.28125 C 0.65625,0 0.796875,0 0.84375,0 1.140625,0 1.859375,-0.03125 2.15625,-0.03125 h 0.6875 C 3.046875,-0.03125 3.28125,0 3.484375,0 3.578125,0 3.75,0 3.75,-0.265625 3.75,-0.40625 3.59375,-0.421875 3.546875,-0.421875 3.0625,-0.4375 2.609375,-0.515625 2.609375,-1.03125 c 0,-0.109375 0.03125,-0.25 0.0625,-0.359375 L 4.609375,-9.0625 C 4.6875,-8.921875 4.6875,-8.890625 4.75,-8.765625 l 3.40625,8.5 C 8.234375,-0.09375 8.265625,0 8.390625,0 8.53125,0 8.546875,-0.046875 8.609375,-0.28125 Z m 0,0"
             id="path86" />
        </g>
      </g>
      <path
         fill="none"
         stroke-width="0.826"
         stroke-linecap="butt"
         stroke-linejoin="miter"
         stroke="#000000"
         stroke-opacity="1"
         stroke-miterlimit="10"
         d="M 0,16.828688 H 20.046874"
         id="path48"
         transform="scale(0.352778)" />
      <g
         clip-path="url(#clipPath3941)"
         id="g56"
         transform="matrix(0.352778,0,0,0.352778,-0.42168,0.00295457)">
        <g
           fill="#000000"
           fill-opacity="1"
           id="g54">
          <g
             id="use50"
             transform="translate(5.033,29.113001)">
            <path
               d="m 7.21875,-9.59375 c 0.015625,-0.0625 0.046875,-0.140625 0.046875,-0.21875 0,-0.140625 -0.15625,-0.140625 -0.1875,-0.140625 0,0 -0.703125,0.0625 -0.78125,0.0625 -0.25,0.015625 -0.453125,0.046875 -0.71875,0.0625 C 5.21875,-9.796875 5.125,-9.78125 5.125,-9.53125 c 0,0.15625 0.109375,0.15625 0.3125,0.15625 0.703125,0 0.71875,0.125 0.71875,0.265625 0,0.09375 -0.03125,0.203125 -0.046875,0.25 L 5.234375,-5.375 C 5.078125,-5.75 4.6875,-6.328125 3.9375,-6.328125 c -1.609375,0 -3.359375,2.09375 -3.359375,4.21875 0,1.421875 0.828125,2.25 1.796875,2.25 0.796875,0 1.46875,-0.609375 1.875,-1.09375 0.140625,0.859375 0.8125,1.09375 1.25,1.09375 0.421875,0 0.765625,-0.25 1.03125,-0.765625 C 6.75,-1.125 6.953125,-2 6.953125,-2.046875 6.953125,-2.125 6.90625,-2.1875 6.8125,-2.1875 c -0.125,0 -0.140625,0.078125 -0.203125,0.296875 -0.21875,0.84375 -0.484375,1.75 -1.078125,1.75 -0.40625,0 -0.4375,-0.375 -0.4375,-0.65625 0,-0.0625 0,-0.359375 0.09375,-0.765625 z M 4.3125,-1.703125 C 4.25,-1.46875 4.25,-1.4375 4.046875,-1.15625 c -0.3125,0.390625 -0.953125,1.015625 -1.625,1.015625 -0.578125,0 -0.921875,-0.53125 -0.921875,-1.375 0,-0.796875 0.453125,-2.40625 0.71875,-3 0.5,-1 1.171875,-1.515625 1.71875,-1.515625 0.953125,0 1.140625,1.171875 1.140625,1.28125 0,0.015625 -0.046875,0.203125 -0.0625,0.234375 z m 0,0"
               id="path90" />
          </g>
          <g
             id="use52"
             transform="translate(12.332347,29.113001)">
            <path
               d="m 2.890625,-5.765625 h 1.3125 c 0.265625,0 0.421875,0 0.421875,-0.265625 C 4.625,-6.1875 4.53125,-6.1875 4.25,-6.1875 H 2.984375 l 0.53125,-2.09375 c 0.0625,-0.203125 0.0625,-0.21875 0.0625,-0.328125 0,-0.21875 -0.1875,-0.359375 -0.375,-0.359375 -0.125,0 -0.453125,0.046875 -0.5625,0.5 l -0.5625,2.28125 h -1.34375 c -0.296875,0 -0.421875,0 -0.421875,0.28125 0,0.140625 0.109375,0.140625 0.375,0.140625 h 1.28125 l -0.953125,3.78125 c -0.109375,0.5 -0.15625,0.65625 -0.15625,0.84375 0,0.671875 0.46875,1.28125 1.28125,1.28125 1.4375,0 2.21875,-2.09375 2.21875,-2.1875 0,-0.09375 -0.0625,-0.140625 -0.140625,-0.140625 -0.03125,0 -0.09375,0 -0.109375,0.0625 -0.015625,0.015625 -0.03125,0.03125 -0.140625,0.265625 -0.296875,0.71875 -0.953125,1.71875 -1.78125,1.71875 -0.4375,0 -0.46875,-0.359375 -0.46875,-0.671875 0,-0.015625 0,-0.296875 0.046875,-0.46875 z m 0,0"
               id="path94" />
          </g>
        </g>
      </g>
      <g
         fill="#000000"
         fill-opacity="1"
         id="g60"
         transform="matrix(0.352778,0,0,0.352778,-0.42168,0.00295457)">
        <g
           id="use58"
           transform="translate(28.177,21.988001)">
          <path
             d="m 13.28125,-6.625 c 0.3125,0 0.625,0 0.625,-0.359375 0,-0.375 -0.359375,-0.375 -0.703125,-0.375 H 1.65625 c -0.359375,0 -0.703125,0 -0.703125,0.375 0,0.359375 0.3125,0.359375 0.609375,0.359375 z m -0.07813,3.671875 c 0.34375,0 0.703125,0 0.703125,-0.375 0,-0.34375 -0.3125,-0.34375 -0.625,-0.34375 H 1.5625 c -0.296875,0 -0.609375,0 -0.609375,0.34375 0,0.375 0.34375,0.375 0.703125,0.375 z m 0,0"
             id="path98" />
        </g>
      </g>
      <g
         fill="#000000"
         fill-opacity="1"
         id="g64"
         transform="matrix(0.352778,0,0,0.352778,-0.42168,0.00295457)">
        <g
           id="use62"
           transform="translate(48.790001,21.988001)">
          <path
             d="M 3.515625,-2.296875 C 2.78125,-1.078125 2.09375,-0.65625 1.09375,-0.59375 0.875,-0.578125 0.703125,-0.578125 0.703125,-0.203125 0.703125,-0.078125 0.8125,0 0.953125,0 1.328125,0 2.25,-0.046875 2.625,-0.046875 3.21875,-0.046875 3.890625,0 4.46875,0 c 0.109375,0 0.359375,0 0.359375,-0.390625 0,-0.1875 -0.15625,-0.203125 -0.28125,-0.203125 -0.484375,-0.046875 -0.875,-0.21875 -0.875,-0.703125 0,-0.296875 0.125,-0.515625 0.390625,-0.96875 L 5.640625,-4.875 h 5.265625 c 0.01563,0.1875 0.01563,0.34375 0.04687,0.53125 0.0625,0.546875 0.296875,2.6875 0.296875,3.078125 0,0.625 -1.046875,0.671875 -1.375,0.671875 -0.234375,0 -0.453125,0 -0.453125,0.359375 C 9.421875,0 9.609375,0 9.734375,0 10.078125,0 10.5,-0.046875 10.84375,-0.046875 h 1.171875 C 13.28125,-0.046875 14.1875,0 14.21875,0 c 0.140625,0 0.359375,0 0.359375,-0.390625 0,-0.203125 -0.1875,-0.203125 -0.484375,-0.203125 -1.140625,0 -1.15625,-0.1875 -1.21875,-0.8125 L 11.609375,-14.296875 C 11.5625,-14.703125 11.484375,-14.75 11.25,-14.75 c -0.203125,0 -0.328125,0.04687 -0.515625,0.359375 z m 2.46875,-3.171875 4.15625,-6.953125 0.703125,6.953125 z m 0,0"
             id="path102" />
        </g>
      </g>
      <g
         fill="#000000"
         fill-opacity="1"
         id="g68"
         transform="matrix(0.352778,0,0,0.352778,-0.42168,0.00295457)">
        <g
           id="use66"
           transform="translate(68.175003,16.764999)">
          <path
             d="m 11.046875,-12.328125 c -0.25,0.21875 -1.015625,0.953125 -1.015625,1.234375 0,0.203125 0.1875,0.390625 0.40625,0.390625 0.1875,0 0.265625,-0.125 0.40625,-0.328125 0.5,-0.625 1.046875,-1.015625 1.53125,-1.28125 0.203125,-0.125 0.34375,-0.1875 0.34375,-0.40625 0,-0.1875 -0.15625,-0.296875 -0.28125,-0.390625 -0.578125,-0.40625 -0.71875,-0.953125 -0.78125,-1.203125 -0.0625,-0.171875 -0.125,-0.421875 -0.421875,-0.421875 -0.125,0 -0.375,0.09375 -0.375,0.40625 0,0.171875 0.125,0.671875 0.515625,1.234375 H 4.4375 c -0.34375,0 -0.703125,0 -0.703125,0.390625 0,0.375 0.375,0.375 0.703125,0.375 z m 0,0"
             id="path106" />
        </g>
      </g>
      <g
         fill="#000000"
         fill-opacity="1"
         id="g72"
         transform="matrix(0.352778,0,0,0.352778,-0.42168,0.00295457)">
        <g
           id="use70"
           transform="translate(63.957001,21.988001)">
          <path
             d="m 15.28125,-11.9375 c 0.234375,-0.890625 0.5625,-1.515625 2.125,-1.578125 0.0625,0 0.3125,-0.01563 0.3125,-0.359375 0,-0.234375 -0.1875,-0.234375 -0.265625,-0.234375 -0.40625,0 -1.46875,0.04687 -1.875,0.04687 h -1 c -0.28125,0 -0.65625,-0.04687 -0.9375,-0.04687 -0.125,0 -0.375,0 -0.375,0.390625 0,0.203125 0.15625,0.203125 0.3125,0.203125 1.234375,0.04687 1.3125,0.515625 1.3125,0.890625 0,0.1875 -0.01563,0.25 -0.07813,0.546875 l -2.34375,9.3125 L 8.0625,-13.75 c -0.15625,-0.34375 -0.171875,-0.359375 -0.625,-0.359375 H 4.921875 c -0.421875,0 -0.609375,0 -0.609375,0.390625 0,0.203125 0.15625,0.203125 0.546875,0.203125 0.09375,0 1.3125,0 1.3125,0.1875 0,0.04687 -0.03125,0.21875 -0.0625,0.265625 l -2.75,10.953125 C 3.125,-1.09375 2.625,-0.65625 1.265625,-0.59375 c -0.109375,0 -0.3125,0.015625 -0.3125,0.390625 C 0.953125,0 1.15625,0 1.21875,0 1.625,0 2.6875,-0.046875 3.09375,-0.046875 h 1 C 4.375,-0.046875 4.734375,0 5.015625,0 c 0.15625,0 0.375,0 0.375,-0.390625 0,-0.1875 -0.203125,-0.203125 -0.28125,-0.203125 C 4.421875,-0.625 3.765625,-0.75 3.765625,-1.484375 3.765625,-1.65625 3.796875,-1.84375 3.84375,-2 L 6.625,-13.0625 c 0.125,0.21875 0.125,0.25 0.21875,0.4375 L 11.75,-0.375 C 11.859375,-0.125 11.890625,0 12.078125,0 c 0.21875,0 0.234375,-0.0625 0.3125,-0.40625 z m 0,0"
             id="path110" />
        </g>
      </g>
    </g>
  </g>
</svg>
